<svg width="16" height="16" viewBox="0 0 16 16" fill="none" xmlns="http://www.w3.org/2000/svg">
<path d="M7.29298 11.8404C7.31635 11.8639 7.34098 11.886 7.3666 11.907C7.37773 11.9161 7.38948 11.924 7.40085 11.9326C7.41548 11.9436 7.42985 11.955 7.4451 11.9653C7.4591 11.9746 7.47373 11.9829 7.48823 11.9914C7.50173 11.9995 7.51498 12.008 7.52885 12.0154C7.54385 12.0234 7.55923 12.0301 7.57448 12.0374C7.58873 12.0441 7.60285 12.0513 7.61748 12.0573C7.63235 12.0635 7.64773 12.0685 7.66285 12.0739C7.67848 12.0795 7.69385 12.0855 7.70973 12.0903C7.72498 12.0949 7.74048 12.0983 7.75585 12.1021C7.7721 12.1062 7.7881 12.1108 7.80473 12.114C7.82248 12.1175 7.84023 12.1196 7.8581 12.1221C7.8726 12.1242 7.88673 12.127 7.9016 12.1284C7.93435 12.1316 7.96723 12.1334 8.00023 12.1334C8.03323 12.1334 8.06598 12.1316 8.09885 12.1284C8.11385 12.1269 8.12848 12.1241 8.14323 12.122C8.16073 12.1195 8.1781 12.1175 8.19548 12.1141C8.2126 12.1108 8.22923 12.1061 8.24585 12.1018C8.2606 12.098 8.27548 12.0948 8.29023 12.0904C8.30673 12.0854 8.3226 12.0792 8.33873 12.0734C8.35335 12.0681 8.3681 12.0632 8.3826 12.0574C8.39773 12.0511 8.4121 12.0439 8.42685 12.0369C8.44173 12.0297 8.45673 12.0233 8.47135 12.0154C8.48535 12.0079 8.49873 11.9994 8.51235 11.9913C8.52673 11.9826 8.54123 11.9745 8.55535 11.9651C8.57035 11.955 8.5846 11.9439 8.5991 11.933C8.61073 11.9242 8.6226 11.9162 8.63385 11.907C8.65948 11.886 8.6841 11.8639 8.70748 11.8404L12.1969 8.35163C12.5875 7.96113 12.5875 7.328 12.197 6.9375C11.8066 6.547 11.1735 6.54688 10.7829 6.93738L9.00023 8.7195V1C9.00023 0.44775 8.55248 0 8.00023 0C7.44798 0 7.00023 0.44775 7.00023 1V8.71937L5.21773 6.93738C4.82723 6.54675 4.19385 6.54688 3.8036 6.9375C3.4131 7.328 3.4131 7.96113 3.80373 8.35163L7.29298 11.8404Z" fill="white"/>
<path d="M12.3446 14H3.65625C3.104 14 2.65625 14.4477 2.65625 15C2.65625 15.5523 3.104 16 3.65625 16H12.3446C12.8969 16 13.3446 15.5523 13.3446 15C13.3446 14.4477 12.8969 14 12.3446 14Z" fill="white"/>
</svg>
