<svg width="24" height="24" viewBox="0 0 24 24" fill="none" xmlns="http://www.w3.org/2000/svg">
<g clip-path="url(#clip0_1_10602)">
<path d="M23.7148 12.2247C23.7148 11.2414 23.635 10.5239 23.4623 9.77979H12.2344V14.2178H18.8249C18.6921 15.3207 17.9746 16.9816 16.3801 18.0977L16.3577 18.2463L19.9078 20.9965L20.1537 21.021C22.4126 18.9349 23.7148 15.8654 23.7148 12.2247Z" fill="#4285F4"/>
<path d="M12.2301 23.9178C15.4589 23.9178 18.1695 22.8548 20.1494 21.0211L16.3758 18.0978C15.3659 18.8021 14.0106 19.2937 12.2301 19.2937C9.06767 19.2937 6.38361 17.2076 5.42681 14.3242L5.28657 14.3361L1.59515 17.193L1.54688 17.3271C3.51341 21.2337 7.55283 23.9178 12.2301 23.9178Z" fill="#34A853"/>
<path d="M5.42895 14.3238C5.17649 13.5797 5.03038 12.7824 5.03038 11.9586C5.03038 11.1347 5.17649 10.3375 5.41567 9.59342L5.40898 9.43494L1.6713 6.53223L1.54901 6.59039C0.738506 8.21149 0.273438 10.0319 0.273438 11.9586C0.273438 13.8853 0.738506 15.7056 1.54901 17.3267L5.42895 14.3238Z" fill="#FBBC05"/>
<path d="M12.2301 4.62403C14.4756 4.62403 15.9904 5.59402 16.8541 6.40461L20.2291 3.10928C18.1563 1.1826 15.4589 0 12.2301 0C7.55283 0 3.51341 2.68406 1.54688 6.59056L5.41353 9.59359C6.38361 6.7102 9.06767 4.62403 12.2301 4.62403Z" fill="#EB4335"/>
</g>
<defs>
<clipPath id="clip0_1_10602">
<rect width="24" height="24" fill="white"/>
</clipPath>
</defs>
</svg>
