<svg width="16" height="16" viewBox="0 0 16 16" fill="none" xmlns="http://www.w3.org/2000/svg">
<path d="M13.3337 2.6665H4.00033C3.26499 2.6665 2.66699 3.2645 2.66699 3.99984V7.33317H4.00033V5.33317L8.26699 8.53317C8.38239 8.61972 8.52275 8.6665 8.66699 8.6665C8.81124 8.6665 8.9516 8.61972 9.06699 8.53317L13.3337 5.33317V11.3332H8.00033V12.6665H13.3337C14.069 12.6665 14.667 12.0685 14.667 11.3332V3.99984C14.667 3.2645 14.069 2.6665 13.3337 2.6665ZM8.66699 7.1665L4.44433 3.99984H12.8897L8.66699 7.1665Z" fill="white"/>
<path d="M1.33301 8H5.99967V9.33333H1.33301V8ZM2.66634 10H6.66634V11.3333H2.66634V10ZM4.66634 12H7.33301V13.3333H4.66634V12Z" fill="white"/>
</svg>
