<svg width="24" height="24" viewBox="0 0 24 24" fill="none" xmlns="http://www.w3.org/2000/svg">
<path d="M18.6577 0H5.34292C4.05963 0 3.01562 1.04405 3.01562 2.32739V16.4843C3.01562 17.7676 4.05967 18.8117 5.34292 18.8117H18.6577C19.941 18.8117 20.9851 17.7676 20.9851 16.4843V2.32739C20.9851 1.04405 19.941 0 18.6577 0ZM20.17 16.4842C20.17 17.3182 19.4916 17.9965 18.6577 17.9965H5.34292C4.50906 17.9965 3.83073 17.3181 3.83073 16.4842V2.32739C3.83073 1.49348 4.50911 0.815109 5.34292 0.815109H18.6577C19.4916 0.815109 20.17 1.49353 20.17 2.32739V16.4842ZM17.8098 4.08155H6.14655C5.47211 4.08155 4.92344 4.63027 4.92344 5.3047V9.87211C4.92344 10.5466 5.47216 11.0953 6.14655 11.0953H17.8098C18.4842 11.0953 19.0329 10.5465 19.0329 9.87211V5.3047C19.0329 4.63027 18.4842 4.08155 17.8098 4.08155ZM18.2178 9.87211C18.2178 10.0971 18.0347 10.2802 17.8097 10.2802H6.14655C5.92155 10.2802 5.7385 10.0971 5.7385 9.87211V5.3047C5.7385 5.0797 5.92155 4.89661 6.14655 4.89661H17.8098C18.0348 4.89661 18.2178 5.0797 18.2178 5.3047V9.87211H18.2178ZM7.11123 12.7578C6.15728 12.7578 5.38122 13.534 5.38122 14.4879C5.38122 15.4419 6.15733 16.218 7.11123 16.218C8.06538 16.218 8.84163 15.4419 8.84163 14.4879C8.84163 13.534 8.06538 12.7578 7.11123 12.7578ZM7.11123 15.403C6.60672 15.403 6.19628 14.9925 6.19628 14.4879C6.19628 13.9834 6.60672 13.5729 7.11123 13.5729C7.61594 13.5729 8.02652 13.9834 8.02652 14.4879C8.02652 14.9925 7.61594 15.403 7.11123 15.403ZM16.8279 12.7578C15.8739 12.7578 15.0978 13.534 15.0978 14.4879C15.0978 15.4419 15.874 16.218 16.8279 16.218C17.782 16.218 18.5582 15.4419 18.5582 14.4879C18.5582 13.534 17.782 12.7578 16.8279 12.7578ZM16.8279 15.403C16.3233 15.403 15.9129 14.9925 15.9129 14.4879C15.9129 13.9834 16.3233 13.5729 16.8279 13.5729C17.3326 13.5729 17.7431 13.9834 17.7431 14.4879C17.7431 14.9925 17.3326 15.403 16.8279 15.403ZM17.1954 19.4313C17.0636 19.2488 16.8089 19.2079 16.6263 19.3396C16.4439 19.4715 16.4029 19.7263 16.5347 19.9087L16.7343 20.1849H7.26639L7.46598 19.9087C7.5978 19.7263 7.55683 19.4715 7.37434 19.3396C7.19191 19.2079 6.93714 19.2489 6.80528 19.4313C6.45822 19.9115 4.28673 22.9163 3.97061 23.3537C3.77425 23.6254 3.97305 24 4.30056 24C4.42694 24 4.55158 23.9414 4.63127 23.8311L5.28316 22.9291H18.7176L19.3695 23.8311C19.5007 24.0127 19.7552 24.0552 19.9385 23.9227C20.121 23.7909 20.162 23.5361 20.0302 23.3537L17.1954 19.4313ZM5.87219 22.114L6.67731 21H17.3234L18.1285 22.114H5.87219ZM10.0935 2.9452H13.8528C14.0779 2.9452 14.2604 2.76277 14.2604 2.53767C14.2604 2.31258 14.0779 2.13014 13.8528 2.13014H10.0935C9.86842 2.13014 9.68598 2.31258 9.68598 2.53767C9.68598 2.76277 9.86842 2.9452 10.0935 2.9452Z" fill="#58496C"/>
</svg>
