<svg width="20" height="20" viewBox="0 0 20 20" fill="none" xmlns="http://www.w3.org/2000/svg">
<path d="M4.90156 18.1034C3.6668 18.1034 2.66211 17.0987 2.66211 15.864C2.66211 14.6292 3.6668 13.6245 4.90156 13.6245C6.13633 13.6245 7.14102 14.6292 7.14102 15.864C7.14141 17.0987 6.13672 18.1034 4.90156 18.1034ZM4.90156 13.8198C3.77422 13.8198 2.85742 14.737 2.85742 15.864C2.85742 16.9913 3.77461 17.9081 4.90156 17.9081C6.02891 17.9081 6.9457 16.9909 6.9457 15.864C6.94609 14.7366 6.02891 13.8198 4.90156 13.8198Z" fill="#F7F7F0"/>
<path d="M13.2773 15.9619H7.96484C7.91094 15.9619 7.86719 15.9182 7.86719 15.8643C7.86719 15.8104 7.91094 15.7666 7.96484 15.7666H13.2773C13.3313 15.7666 13.375 15.8104 13.375 15.8643C13.375 15.9182 13.3313 15.9619 13.2773 15.9619Z" fill="#F7F7F0"/>
<path d="M15.6211 10.9005C15.5672 10.9005 15.5234 10.9442 15.5234 10.9981C15.5234 11.0521 15.5672 11.0958 15.6211 11.0958H16.427V11.3646C16.427 11.4185 16.4707 11.4622 16.5246 11.4622C16.5785 11.4622 16.6223 11.4185 16.6223 11.3646V8.8501C16.6223 8.64541 16.4559 8.479 16.2512 8.479H15.6211C15.5672 8.479 15.5234 8.52275 15.5234 8.57666C15.5234 8.63057 15.5672 8.67432 15.6211 8.67432H16.2512C16.348 8.67432 16.427 8.75322 16.427 8.8501V9.12236H15.6211C15.5672 9.12236 15.5234 9.16611 15.5234 9.22002C15.5234 9.27393 15.5672 9.31768 15.6211 9.31768H16.427V9.71494H15.6211C15.5672 9.71494 15.5234 9.75869 15.5234 9.8126C15.5234 9.8665 15.5672 9.91025 15.6211 9.91025H16.427V10.3075H15.6211C15.5672 10.3075 15.5234 10.3513 15.5234 10.4052C15.5234 10.4591 15.5672 10.5028 15.6211 10.5028H16.427V10.9001H15.6211V10.9005Z" fill="#F7F7F0"/>
<path d="M13.4014 10.9005C13.3475 10.9005 13.3037 10.9442 13.3037 10.9981C13.3037 11.0521 13.3475 11.0958 13.4014 11.0958H14.2072V11.3646C14.2072 11.4185 14.251 11.4622 14.3049 11.4622C14.3588 11.4622 14.4025 11.4185 14.4025 11.3646V8.8501C14.4025 8.64541 14.2361 8.479 14.0314 8.479H13.4014C13.3475 8.479 13.3037 8.52275 13.3037 8.57666C13.3037 8.63057 13.3475 8.67432 13.4014 8.67432H14.0314C14.1283 8.67432 14.2072 8.75322 14.2072 8.8501V9.12236H13.4014C13.3475 9.12236 13.3037 9.16611 13.3037 9.22002C13.3037 9.27393 13.3475 9.31768 13.4014 9.31768H14.2072V9.71494H13.4014C13.3475 9.71494 13.3037 9.75869 13.3037 9.8126C13.3037 9.8665 13.3475 9.91025 13.4014 9.91025H14.2072V10.3075H13.4014C13.3475 10.3075 13.3037 10.3513 13.3037 10.4052C13.3037 10.4591 13.3475 10.5028 13.4014 10.5028H14.2072V10.9001H13.4014V10.9005Z" fill="#F7F7F0"/>
<path d="M11.3232 10.9005C11.2693 10.9005 11.2256 10.9442 11.2256 10.9981C11.2256 11.0521 11.2693 11.0958 11.3232 11.0958H12.1291V11.3646C12.1291 11.4185 12.1729 11.4622 12.2268 11.4622C12.2807 11.4622 12.3244 11.4185 12.3244 11.3646V8.8501C12.3244 8.64541 12.158 8.479 11.9533 8.479H11.3232C11.2693 8.479 11.2256 8.52275 11.2256 8.57666C11.2256 8.63057 11.2693 8.67432 11.3232 8.67432H11.9533C12.0502 8.67432 12.1291 8.75322 12.1291 8.8501V9.12236H11.3232C11.2693 9.12236 11.2256 9.16611 11.2256 9.22002C11.2256 9.27393 11.2693 9.31768 11.3232 9.31768H12.1291V9.71494H11.3232C11.2693 9.71494 11.2256 9.75869 11.2256 9.8126C11.2256 9.8665 11.2693 9.91025 11.3232 9.91025H12.1291V10.3075H11.3232C11.2693 10.3075 11.2256 10.3513 11.2256 10.4052C11.2256 10.4591 11.2693 10.5028 11.3232 10.5028H12.1291V10.9001H11.3232V10.9005Z" fill="#F7F7F0"/>
<path d="M2.52576 5.61182C2.54529 6.82353 2.58982 8.03486 2.64177 9.2458C2.65036 9.74658 3.09646 10.1579 3.59607 10.1157C4.90857 10.0536 6.22146 9.97783 7.53318 9.89307C7.84646 9.9251 8.16091 9.69619 8.23787 9.38799C8.26951 9.27471 8.27537 9.01885 8.28904 8.90166C8.38279 7.69189 8.44372 6.47939 8.48865 5.26768C8.49099 5.09463 8.44724 4.91572 8.35662 4.76416C8.20076 4.49307 7.90622 4.3083 7.59372 4.2876C7.52927 4.28213 7.25505 4.27783 7.18865 4.27471C6.38122 4.25205 5.57341 4.24111 4.76599 4.23252L3.55466 4.22705C3.27068 4.22744 2.98552 4.35049 2.79411 4.56182C2.62458 4.74346 2.52419 4.98994 2.52107 5.23877C2.51833 5.279 2.52654 5.56846 2.52576 5.61182ZM3.36326 9.2458C3.39841 8.43838 3.42888 7.63057 3.45232 6.82314C3.46599 6.30908 3.47849 5.78604 3.48474 5.27119C3.48747 5.2333 3.51482 5.204 3.55466 5.20361C4.26638 5.204 5.27576 5.19268 5.97732 5.18252C6.50076 5.17314 7.03357 5.16143 7.55779 5.14658C7.62185 5.15205 7.67302 5.20205 7.68201 5.26768C7.72693 6.47939 7.78787 7.69189 7.88162 8.90166C7.88357 8.9415 7.91013 9.23877 7.91091 9.26963C7.92654 9.48721 7.74919 9.67822 7.53318 9.704C6.3238 9.62353 5.11052 9.55557 3.89919 9.49502L3.59646 9.48057C3.52654 9.48174 3.45505 9.45713 3.41052 9.40205C3.37224 9.35908 3.35701 9.3001 3.36326 9.2458Z" fill="#F7F7F0"/>
<path d="M19.5888 15.096C19.2342 14.2237 18.8799 13.3511 18.5197 12.4812C18.508 11.3604 18.4904 10.2366 18.4681 9.11592C18.467 8.01279 17.5697 7.15146 16.467 7.21123C15.9916 7.22451 15.5166 7.23857 15.0412 7.25381C15.1552 6.98584 15.2584 6.71436 15.3595 6.44131C15.5342 5.96475 15.692 5.4749 15.8392 4.99014C15.8459 4.96592 15.8881 4.82764 15.8935 4.80732C15.9752 4.52139 15.8853 4.19912 15.6717 3.99326C15.5185 3.83936 15.2994 3.75264 15.0818 3.75107C14.2701 3.72373 13.458 3.72334 12.6463 3.75068C12.1955 3.74795 11.8041 4.12725 11.8045 4.57959C11.8025 4.66904 11.8181 4.75928 11.8447 4.84404C12.0982 5.68701 12.372 6.5292 12.724 7.33818C11.9037 7.37256 11.0838 7.4124 10.2642 7.45928C10.2724 7.10889 10.2799 6.7585 10.2869 6.4085C10.3127 5.24521 10.3263 3.9835 10.3412 2.81592C10.3635 2.13271 9.78884 1.54521 9.10642 1.54912C8.06345 1.54014 6.23064 1.5374 5.17087 1.53662C4.12751 1.53779 3.06736 1.54131 2.02322 1.54912C1.32751 1.51631 0.722436 2.08701 0.726342 2.78389C0.772436 7.1042 0.859936 11.4272 1.08806 15.744C0.933764 15.7522 0.779077 15.7601 0.62478 15.7687C0.577124 15.7714 0.538061 15.8093 0.535327 15.8581C0.532202 15.9104 0.572436 15.9558 0.62478 15.9585C1.17595 15.9894 1.72712 16.0171 2.2783 16.0433C2.39978 17.7671 4.24665 18.8972 5.83806 18.1233C6.57283 17.7741 7.08415 17.021 7.14314 16.2214C9.04119 16.2718 10.9396 16.303 12.8385 16.3241C13.1279 17.8866 14.8592 18.8542 16.3623 18.1233C17.0568 17.7933 17.5513 17.1022 17.6533 16.3522C18.0424 16.3522 18.4224 16.3515 18.7826 16.3499C19.4388 16.3558 19.8611 15.6835 19.5888 15.096ZM15.0463 4.5999C15.0467 4.5999 15.047 4.59873 15.0474 4.5999L15.0459 4.60928C15.0439 4.62061 15.042 4.63232 15.04 4.64365C15.0357 4.62842 15.0377 4.61084 15.0463 4.5999ZM12.6888 4.6417C12.6857 4.62295 12.683 4.60771 12.6814 4.5999C12.69 4.60498 12.692 4.62568 12.6888 4.6417ZM12.9857 6.92217C12.9314 6.21084 12.8322 5.49951 12.7154 4.79678C12.7123 4.7792 12.7045 4.73271 12.697 4.68857C13.0861 4.70107 13.4752 4.70732 13.8642 4.70732C14.2537 4.70732 14.6431 4.70068 15.0326 4.68818C14.9408 5.2249 14.8599 5.76943 14.8002 6.31045C14.7666 6.62803 14.7365 6.94482 14.7209 7.26397C14.151 7.28272 13.5806 7.30342 13.0107 7.32646C13.0049 7.19131 12.9959 7.05654 12.9857 6.92217ZM10.8935 7.69912C12.781 7.79795 14.6709 7.86201 16.5599 7.91514C17.1049 7.93818 17.5705 8.35029 17.64 8.89287C17.6424 8.91631 17.6467 8.93936 17.6486 8.96279L17.6498 9.0335L17.651 9.06865L17.6502 9.11592C17.6275 10.2425 17.6103 11.3722 17.5986 12.4983H11.1787C11.0029 12.4983 10.8322 12.4257 10.7103 12.2987L10.1674 11.7335C10.1576 11.7233 10.1474 11.7132 10.1369 11.7034C10.1885 10.3569 10.2275 9.00928 10.2588 7.66396C10.4705 7.67647 10.6818 7.68779 10.8935 7.69912ZM4.23923 17.4644C3.63767 17.1733 3.24197 16.53 3.24822 15.864C3.24353 15.0042 3.88806 14.2792 4.7322 14.1444C5.8283 13.978 6.7865 14.7819 6.94978 15.864C6.82634 17.1839 5.45134 18.0522 4.23923 17.4644ZM14.7631 17.4644C14.1615 17.1733 13.7658 16.53 13.772 15.864C13.7674 15.0042 14.4119 14.2792 15.256 14.1444C16.3521 13.978 17.3103 14.7819 17.4736 15.864C17.3506 17.1839 15.9756 18.0522 14.7631 17.4644ZM17.7345 15.3757C17.7146 15.3757 17.6951 15.3757 17.6752 15.3757C17.592 14.5257 16.9756 13.7515 16.1541 13.4632C14.6541 12.9308 13.108 13.9128 12.8377 15.403C10.9447 15.4226 9.05173 15.4542 7.15915 15.505C7.12947 14.605 6.49275 13.7655 5.62986 13.4632C4.03728 12.8979 2.39275 14.0397 2.2783 15.6843C1.94978 15.6999 1.62087 15.7163 1.29236 15.7331C1.44705 12.8667 1.52908 10.0003 1.58962 7.1335C1.60837 6.07803 1.6322 4.91045 1.64275 3.84912L1.65486 2.7792C1.66111 2.70615 1.69236 2.63857 1.74431 2.5874C1.8197 2.5085 1.92205 2.49209 2.02283 2.49834C2.09392 2.49795 2.36619 2.50146 2.43337 2.50107C4.32712 2.51357 6.55369 2.51396 8.45486 2.50264L9.00251 2.4999L9.11775 2.49951C9.27517 2.50146 9.41189 2.64209 9.41189 2.79912C9.41462 3.02061 9.42556 3.98115 9.42869 4.21904C9.4658 6.63584 9.5158 9.05693 9.60681 11.4753C9.5904 11.4745 9.574 11.4737 9.55798 11.4737H2.30173C2.24783 11.4737 2.20408 11.5175 2.20408 11.5714C2.20408 11.6253 2.24783 11.669 2.30173 11.669H9.55837C9.57712 11.669 9.59587 11.6702 9.61462 11.6718C9.65954 12.8378 9.71423 14.0034 9.78181 15.1671C9.78494 15.214 9.82244 15.2526 9.87048 15.2558C9.92283 15.2593 9.96814 15.2194 9.97165 15.1671C10.0338 14.1042 10.0845 13.039 10.1267 11.9726L10.5697 12.4335C10.7283 12.5983 10.9502 12.6933 11.1791 12.6933H17.6135C17.6181 12.7112 17.6236 12.7288 17.6306 12.746C17.9662 13.6171 18.3236 14.5218 18.6592 15.3776C18.3982 15.3776 17.9263 15.3753 17.7345 15.3757Z" fill="#F7F7F0"/>
</svg>
