<svg width="48" height="48" viewBox="0 0 48 48" fill="none" xmlns="http://www.w3.org/2000/svg">
<rect width="48" height="48" fill="#F7F7F0"/>
<path d="M24.0003 26.6667C26.9417 26.6667 29.3337 24.2747 29.3337 21.3333C29.3337 18.392 26.9417 16 24.0003 16C21.059 16 18.667 18.392 18.667 21.3333C18.667 24.2747 21.059 26.6667 24.0003 26.6667ZM24.0003 18.6667C25.471 18.6667 26.667 19.8627 26.667 21.3333C26.667 22.804 25.471 24 24.0003 24C22.5297 24 21.3337 22.804 21.3337 21.3333C21.3337 19.8627 22.5297 18.6667 24.0003 18.6667Z" fill="#8C39FC"/>
<path d="M23.2265 37.0854C23.4523 37.2462 23.7226 37.3326 23.9998 37.3326C24.277 37.3326 24.5473 37.2462 24.7731 37.0854C25.1785 36.7987 34.7051 29.9201 34.6665 21.3334C34.6665 15.4521 29.8811 10.6667 23.9998 10.6667C18.1185 10.6667 13.3331 15.4521 13.3331 21.3267C13.2945 29.9201 22.8211 36.7987 23.2265 37.0854ZM23.9998 13.3334C28.4118 13.3334 31.9998 16.9214 31.9998 21.3401C32.0278 27.2574 26.1491 32.5707 23.9998 34.3134C21.8518 32.5694 15.9718 27.2547 15.9998 21.3334C15.9998 16.9214 19.5878 13.3334 23.9998 13.3334Z" fill="#8C39FC"/>
</svg>
