<svg width="24" height="24" viewBox="0 0 24 24" fill="none" xmlns="http://www.w3.org/2000/svg">
<path d="M12.0004 22.5999C9.70039 22.5999 7.90039 20.7999 7.90039 18.4999V17.9999C7.90039 17.6999 8.20039 17.3999 8.50039 17.3999H15.5004C15.8004 17.3999 16.1004 17.6999 16.1004 17.9999V18.4999C16.1004 20.7999 14.3004 22.5999 12.0004 22.5999ZM9.10039 18.5999C9.20039 20.1999 10.4004 21.3999 12.0004 21.3999C13.6004 21.3999 14.8004 20.1999 14.9004 18.5999H9.10039Z" fill="black"/>
<path d="M20.9998 18.5999H2.9998C2.7998 18.5999 2.5998 18.4999 2.4998 18.2999C2.3998 18.0999 2.3998 17.8999 2.4998 17.6999L3.4998 15.5999C4.0998 14.3999 4.3998 13.0999 4.3998 11.7999V8.9999C4.3998 4.7999 7.7998 1.3999 11.9998 1.3999C16.1998 1.3999 19.5998 4.7999 19.5998 8.9999V11.8999C19.5998 13.1999 19.8998 14.4999 20.4998 15.6999L21.4998 17.7999C21.5998 17.9999 21.5998 18.1999 21.4998 18.3999C21.3998 18.5999 21.1998 18.5999 20.9998 18.5999ZM3.9998 17.3999H19.9998L19.3998 16.1999C18.6998 14.8999 18.3998 13.3999 18.3998 11.8999V8.9999C18.3998 5.4999 15.4998 2.5999 11.9998 2.5999C8.4998 2.5999 5.5998 5.4999 5.5998 8.9999V11.8999C5.5998 13.3999 5.1998 14.8999 4.5998 16.1999L3.9998 17.3999Z" fill="black"/>
<path d="M11.4004 6H12.6004V11H11.4004V6Z" fill="black"/>
<path d="M12.0004 14.5999C11.4004 14.5999 10.9004 14.0999 10.9004 13.4999C10.9004 12.8999 11.4004 12.3999 12.0004 12.3999C12.6004 12.3999 13.1004 12.8999 13.1004 13.4999C13.1004 14.0999 12.6004 14.5999 12.0004 14.5999ZM12.0004 13.3999C11.9004 13.3999 11.9004 13.3999 11.9004 13.4999C11.9004 13.5999 12.1004 13.5999 12.1004 13.4999C12.1004 13.3999 12.1004 13.3999 12.0004 13.3999Z" fill="black"/>
<path d="M12.0004 14.0999C11.7004 14.0999 11.4004 13.7999 11.4004 13.4999C11.4004 13.1999 11.7004 12.8999 12.0004 12.8999C12.3004 12.8999 12.6004 13.1999 12.6004 13.4999C12.6004 13.7999 12.3004 14.0999 12.0004 14.0999Z" fill="black"/>
</svg>
