<svg width="24" height="24" viewBox="0 0 24 24" fill="none" xmlns="http://www.w3.org/2000/svg">
<path d="M15.927 8.50004L19.606 3.44104C19.6873 3.32919 19.7361 3.19704 19.7471 3.05919C19.758 2.92134 19.7305 2.78316 19.6678 2.65992C19.6051 2.53668 19.5096 2.43317 19.3917 2.36084C19.2739 2.2885 19.1383 2.25016 19 2.25004H8.00004C7.49338 2.19131 6.98 2.24791 6.4983 2.4156C6.0166 2.5833 5.57906 2.85774 5.2184 3.2184C4.85774 3.57906 4.5833 4.0166 4.4156 4.4983C4.24791 4.98 4.19131 5.49338 4.25004 6.00004V20.958C4.25004 21.1569 4.32905 21.3477 4.46971 21.4884C4.61036 21.629 4.80112 21.708 5.00004 21.708C5.19895 21.708 5.38971 21.629 5.53037 21.4884C5.67102 21.3477 5.75004 21.1569 5.75004 20.958V14.75H19C19.1383 14.7499 19.2739 14.7116 19.3917 14.6392C19.5096 14.5669 19.6051 14.4634 19.6678 14.3402C19.7305 14.2169 19.758 14.0787 19.7471 13.9409C19.7361 13.803 19.6873 13.6709 19.606 13.559L15.927 8.50004ZM5.75004 13.25V6.00004C5.75004 4.42304 6.42304 3.75004 8.00004 3.75004H17.527L14.394 8.05904C14.3004 8.18702 14.25 8.34147 14.25 8.50004C14.25 8.6586 14.3004 8.81305 14.394 8.94104L17.527 13.25H5.75004Z" fill="#58496C"/>
</svg>
