<svg width="16" height="16" viewBox="0 0 16 16" fill="none" xmlns="http://www.w3.org/2000/svg">
<path d="M11.0464 14.6668C11.2234 14.6678 11.3989 14.6335 11.5626 14.566C11.7263 14.4985 11.8749 14.399 11.9997 14.2734L13.8064 12.4668C13.9305 12.3419 14.0002 12.1729 14.0002 11.9968C14.0002 11.8206 13.9305 11.6517 13.8064 11.5268L11.1397 8.86009C11.0148 8.73593 10.8458 8.66623 10.6697 8.66623C10.4936 8.66623 10.3246 8.73593 10.1997 8.86009L9.13303 9.92009C8.39453 9.72319 7.71057 9.36069 7.13303 8.86009C6.6334 8.28189 6.27102 7.59817 6.07303 6.86009L7.13303 5.79343C7.2572 5.66852 7.32689 5.49955 7.32689 5.32343C7.32689 5.1473 7.2572 4.97834 7.13303 4.85343L4.46636 2.18676C4.34145 2.06259 4.17249 1.9929 3.99636 1.9929C3.82024 1.9929 3.65127 2.06259 3.52636 2.18676L1.72636 4.00009C1.60078 4.12492 1.50133 4.27351 1.43379 4.43719C1.36626 4.60087 1.33201 4.77637 1.33303 4.95343C1.39351 7.51496 2.41708 9.95962 4.1997 11.8001C6.04018 13.5827 8.48484 14.6063 11.0464 14.6668ZM3.9997 3.60676L5.72636 5.33343L4.86636 6.19343C4.78491 6.26973 4.72392 6.36525 4.68897 6.47125C4.65403 6.57724 4.64625 6.69031 4.66636 6.80009C4.91499 7.91387 5.44262 8.94619 6.1997 9.80009C7.0536 10.5572 8.08592 11.0848 9.1997 11.3334C9.30782 11.356 9.41986 11.3514 9.52575 11.32C9.63164 11.2886 9.72807 11.2313 9.80636 11.1534L10.6664 10.2734L12.393 12.0001L11.0597 13.3334C8.84885 13.2765 6.73937 12.3942 5.14636 10.8601C3.6083 9.26644 2.72344 7.15417 2.66636 4.94009L3.9997 3.60676ZM13.333 7.33343H14.6664C14.6837 6.54076 14.5403 5.7528 14.2449 5.01703C13.9495 4.28126 13.5081 3.61292 12.9475 3.05229C12.3869 2.49166 11.7185 2.05034 10.9828 1.75493C10.247 1.45952 9.45903 1.31614 8.66636 1.33343V2.66676C9.28497 2.64536 9.90136 2.75143 10.4772 2.97838C11.0531 3.20533 11.5761 3.54831 12.0138 3.98599C12.4515 4.42367 12.7945 4.9467 13.0214 5.52256C13.2484 6.09843 13.3544 6.71482 13.333 7.33343Z" fill="white"/>
<path d="M8.66699 5.33333C10.067 5.33333 10.667 5.93333 10.667 7.33333H12.0003C12.0003 5.18667 10.8137 4 8.66699 4V5.33333Z" fill="white"/>
</svg>
