<svg preserveAspectRatio="none" width="100%" height="100%" overflow="visible" style="display: block;" viewBox="0 0 11.2564 16.2872" fill="none" xmlns="http://www.w3.org/2000/svg">
<g id="Bighorn_Battlefield">
<path id="Vector" d="M10.8842 14.3624L10.3989 14.3352C10.5388 13.4107 10.5365 12.4681 10.3833 11.5299C10.3657 11.421 10.2788 11.3368 10.1694 11.3224L9.44241 11.227C9.26772 9.4778 8.99807 7.78048 8.57418 5.77016C8.55236 5.62224 8.49374 5.48742 8.41012 5.37139C8.44514 5.28913 8.46896 5.16228 8.45797 5.05971C8.36276 3.50869 8.16158 2.10415 7.8442 0.765279C7.8322 0.714533 7.77363 0.614054 7.6733 0.583638C7.39986 0.500924 5.48111 -0.0398274 5.20651 0.0023395C4.47164 0.113668 3.91842 0.316793 3.51461 0.623922C3.5119 0.625998 3.42891 0.744028 3.42721 0.749654C2.87603 2.54427 2.8527 4.96789 2.7524 5.69008C2.37341 7.152 2.12014 8.85051 1.93359 11.1652L1.08248 11.3246C0.981897 11.3434 0.903283 11.4213 0.883264 11.5214C0.71499 12.3646 0.711999 13.2847 0.864587 14.3234L0.376428 14.3627C0.286584 14.37 0.207482 14.4249 0.169396 14.5067C-0.053752 14.9892 -0.0566781 15.5331 0.162072 16.1237C0.19967 16.2252 0.305139 16.2934 0.406213 16.2868L4.5046 16.1271C13.2239 16.3464 10.2106 16.2706 10.8637 16.287H10.8701C10.9731 16.287 11.0659 16.2238 11.1035 16.1271C11.3071 15.5995 11.3076 15.06 11.104 14.5233C11.0688 14.4311 10.9829 14.3678 10.8842 14.3624ZM3.73492 1.55694C3.87067 1.26627 4.11078 1.03454 4.42083 0.935567C4.55312 0.896383 4.68545 0.964956 4.72958 1.09728C4.76876 1.22469 4.69528 1.3619 4.56783 1.40111C4.24929 1.50402 4.0386 1.89608 4.13659 2.21462C4.20666 2.45101 3.91889 2.62935 3.74456 2.47432C3.71026 2.44491 3.68087 2.40569 3.66613 2.35671C3.64211 2.27547 3.63027 2.19222 3.62588 2.10894C3.65896 1.92052 3.69506 1.73613 3.73492 1.55694ZM5.39575 4.39486L5.48718 0.564504L7.3774 1.02578L7.94955 5.03286C7.59688 4.91865 6.88744 4.54853 5.39575 4.39486ZM9.92379 14.1571L5.00488 13.8612C5.03761 12.8514 5.04648 12.011 5.10217 11.1615L9.91793 11.7936C10.0297 12.5844 10.0322 13.3776 9.92379 14.1571ZM8.93404 11.1581L5.12551 10.6339L5.37856 4.91662L7.76852 5.50087C7.92029 5.53695 8.0524 5.66409 8.08199 5.85805C8.49557 7.81923 8.76119 9.46889 8.93404 11.1581ZM10.6923 15.7824L4.99276 15.634L4.96835 14.5288L10.687 14.8519C10.7788 15.1664 10.7802 15.473 10.6923 15.7824Z" fill="var(--fill-0, #F7F7F0)"/>
</g>
</svg>
