<svg width="48" height="48" viewBox="0 0 48 48" fill="none" xmlns="http://www.w3.org/2000/svg">
<rect width="48" height="48" fill="#F7F7F0"/>
<path d="M12 29.3334C12 31.1015 12.7024 32.7972 13.9526 34.0475C15.2029 35.2977 16.8986 36.0001 18.6667 36.0001C20.4348 36.0001 22.1305 35.2977 23.3807 34.0475C24.631 32.7972 25.3333 31.1015 25.3333 29.3334C25.3333 27.5653 24.631 25.8696 23.3807 24.6194C22.1305 23.3691 20.4348 22.6667 18.6667 22.6667C16.8986 22.6667 15.2029 23.3691 13.9526 24.6194C12.7024 25.8696 12 27.5653 12 29.3334ZM30.6667 33.3334C30.6667 34.0407 30.9476 34.7189 31.4477 35.219C31.9478 35.7191 32.6261 36.0001 33.3333 36.0001C34.0406 36.0001 34.7189 35.7191 35.219 35.219C35.719 34.7189 36 34.0407 36 33.3334C36 32.6262 35.719 31.9479 35.219 31.4478C34.7189 30.9477 34.0406 30.6667 33.3333 30.6667C32.6261 30.6667 31.9478 30.9477 31.4477 31.4478C30.9476 31.9479 30.6667 32.6262 30.6667 33.3334Z" stroke="#8C39FC" stroke-width="2.3" stroke-linecap="round" stroke-linejoin="round"/>
<path d="M33.3333 30.6667C33.3333 29.6058 32.9119 28.5884 32.1618 27.8382C31.4116 27.0881 30.3942 26.6667 29.3333 26.6667H24.8M12 12H13.3333C14.0406 12 14.7189 12.281 15.219 12.781C15.719 13.2811 16 13.9594 16 14.6667V22.6667M16 18.6667H30.6667M28 18.6667V26.6667" stroke="#8C39FC" stroke-width="2.3" stroke-linecap="round" stroke-linejoin="round"/>
</svg>
