<svg width="24" height="24" viewBox="0 0 24 24" fill="none" xmlns="http://www.w3.org/2000/svg">
<path d="M11.9918 5.91748C10.4936 5.91748 9.05674 6.51172 7.99734 7.56948C6.93794 8.62724 6.34277 10.0619 6.34277 11.5578C6.34277 13.0537 6.93794 14.4883 7.99734 15.546C9.05674 16.6038 10.4936 17.198 11.9918 17.198C13.49 17.198 14.9269 16.6038 15.9863 15.546C17.0457 14.4883 17.6409 13.0537 17.6409 11.5578C17.6409 10.0619 17.0457 8.62724 15.9863 7.56948C14.9269 6.51172 13.49 5.91748 11.9918 5.91748ZM11.9918 15.2208C11.0185 15.2208 10.085 14.8347 9.39679 14.1475C8.70855 13.4604 8.32189 12.5283 8.32189 11.5565C8.32189 10.5847 8.70855 9.65271 9.39679 8.96554C10.085 8.27836 11.0185 7.89231 11.9918 7.89231C12.9651 7.89231 13.8986 8.27836 14.5868 8.96554C15.2751 9.65271 15.6617 10.5847 15.6617 11.5565C15.6617 12.5283 15.2751 13.4604 14.5868 14.1475C13.8986 14.8347 12.9651 15.2208 11.9918 15.2208Z" fill="white"/>
<path d="M17.8638 7.02585C18.5912 7.02585 19.1808 6.43713 19.1808 5.71092C19.1808 4.98471 18.5912 4.396 17.8638 4.396C17.1365 4.396 16.5469 4.98471 16.5469 5.71092C16.5469 6.43713 17.1365 7.02585 17.8638 7.02585Z" fill="white"/>
<path d="M22.4173 4.37458C22.1344 3.64537 21.7022 2.98316 21.1483 2.43032C20.5944 1.87749 19.931 1.44622 19.2006 1.16411C18.3458 0.843747 17.4428 0.670519 16.53 0.651806C15.3535 0.600575 14.9809 0.585938 11.9976 0.585938C9.01422 0.585938 8.63183 0.585937 7.46513 0.651806C6.55301 0.669562 5.65064 0.842826 4.79698 1.16411C4.06634 1.44589 3.40276 1.87704 2.84881 2.42992C2.29486 2.98279 1.86278 3.64518 1.5803 4.37458C1.25937 5.22796 1.08627 6.12965 1.06841 7.04103C1.01588 8.21446 1 8.58649 1 11.5664C1 14.5451 1 14.9245 1.06841 16.0918C1.08674 17.0042 1.259 17.9044 1.5803 18.7595C1.86358 19.4886 2.29607 20.1507 2.85016 20.7035C3.40424 21.2563 4.06771 21.6877 4.7982 21.9699C5.65024 22.3032 6.55299 22.4888 7.46757 22.5188C8.64405 22.5701 9.01666 22.5859 12 22.5859C14.9833 22.5859 15.3657 22.5859 16.5324 22.5188C17.4452 22.5003 18.3481 22.3275 19.203 22.0078C19.9333 21.725 20.5965 21.2934 21.1503 20.7404C21.7042 20.1874 22.1365 19.5252 22.4197 18.7961C22.741 17.9422 22.9133 17.042 22.9316 16.1296C22.9841 14.9562 23 14.5842 23 11.6042C23 8.62431 23 8.24617 22.9316 7.07884C22.9174 6.15458 22.7434 5.23971 22.4173 4.37458ZM20.9293 16.0016C20.9214 16.7045 20.7929 17.4009 20.5493 18.0605C20.3658 18.5349 20.085 18.9656 19.7248 19.3251C19.3646 19.6845 18.933 19.9647 18.4578 20.1476C17.8045 20.3897 17.1144 20.518 16.4176 20.5269C15.257 20.5806 14.9296 20.594 11.9536 20.594C8.97512 20.594 8.67092 20.594 7.48834 20.5269C6.79189 20.5184 6.10213 20.3901 5.44936 20.1476C4.97252 19.9658 4.53921 19.6861 4.17745 19.3266C3.8157 18.9671 3.53356 18.5358 3.34929 18.0605C3.10916 17.408 2.98072 16.7198 2.96935 16.0247C2.91681 14.8659 2.9046 14.539 2.9046 11.5676C2.9046 8.59503 2.9046 8.2913 2.96935 7.10933C2.97724 6.40677 3.10575 5.71076 3.34929 5.05156C3.7219 4.08915 4.48545 3.33167 5.44936 2.96329C6.10245 2.72195 6.79201 2.59366 7.48834 2.58394C8.65016 2.53149 8.97635 2.51685 11.9536 2.51685C14.9308 2.51685 15.2362 2.51685 16.4176 2.58394C17.1145 2.59231 17.8046 2.72064 18.4578 2.96329C18.9329 3.14659 19.3645 3.42706 19.7246 3.78668C20.0848 4.14631 20.3657 4.57715 20.5493 5.05156C20.7894 5.70408 20.9179 6.3923 20.9293 7.08738C20.9818 8.24739 20.9952 8.57307 20.9952 11.5457C20.9952 14.5171 20.9952 14.8367 20.9427 16.0028H20.9293V16.0016Z" fill="white"/>
</svg>
