<svg width="32" height="32" viewBox="0 0 32 32" fill="none" xmlns="http://www.w3.org/2000/svg">
<path d="M1.875 22.5625H13.1875C14.2211 22.5625 15.0625 21.7211 15.0625 20.6875V16.9375C15.0625 15.9039 14.2211 15.0625 13.1875 15.0625C12.1539 15.0625 11.3125 15.9039 11.3125 16.9375V18.8125H3.75V16.9375C3.75 15.9039 2.90863 15.0625 1.875 15.0625C0.841375 15.0625 0 15.9039 0 16.9375V20.6875C0 21.7211 0.841375 22.5625 1.875 22.5625Z" fill="white"/>
<path d="M5.6875 16.9375H9.4375C9.4375 15.5554 10.1971 14.3594 11.3125 13.709V7.5625C11.3125 5.49144 9.63356 3.8125 7.5625 3.8125C5.49144 3.8125 3.75 5.49144 3.75 7.5625V13.709C4.86544 14.3594 5.6875 15.5554 5.6875 16.9375Z" fill="white"/>
<path d="M30.0625 15.0625C29.0289 15.0625 28.1875 15.9039 28.1875 16.9375V18.8125H20.6875V16.9375C20.6875 15.9039 19.8461 15.0625 18.8125 15.0625C17.7789 15.0625 16.9375 15.9039 16.9375 16.9375V20.6875C16.9375 21.7211 17.7789 22.5625 18.8125 22.5625H30.0625C31.0961 22.5625 32 21.7211 32 20.6875V16.9375C32 15.9039 31.0961 15.0625 30.0625 15.0625Z" fill="white"/>
<path d="M26.3125 24.4375H22.5625V26.3125H9.4375V24.4375H5.6875V26.3125H0V28.1875H32V26.3125H26.3125V24.4375Z" fill="white"/>
<path d="M20.6875 13.709C21.8029 14.3594 22.5625 15.5554 22.5625 16.9375H26.3125C26.3125 15.5554 27.0721 14.3594 28.1875 13.709V7.5625C28.1875 5.49144 26.5086 3.8125 24.4375 3.8125C22.3664 3.8125 20.6875 5.49144 20.6875 7.5625V13.709Z" fill="white"/>
</svg>
