<svg width="32" height="32" viewBox="0 0 32 32" fill="none" xmlns="http://www.w3.org/2000/svg">
<g clip-path="url(#clip0_1_13332)">
<path d="M6.66706 8C8.5084 8 10.0004 6.508 10.0004 4.66667C10.0004 2.82667 8.5084 1.33333 6.66706 1.33333C4.82706 1.33333 3.33373 2.82667 3.33373 4.66667C3.33373 6.508 4.82706 8 6.66706 8ZM25.3337 8C27.1751 8 28.6671 6.508 28.6671 4.66667C28.6671 2.82667 27.1751 1.33333 25.3337 1.33333C23.4924 1.33333 22.0004 2.82533 22.0004 4.66667C22.0004 6.508 23.4937 8 25.3337 8ZM15.8857 6.66667C17.7271 6.66667 19.2191 5.17467 19.2191 3.33333C19.2191 1.492 17.7271 0 15.8857 0C14.0444 0 12.5524 1.492 12.5524 3.33333C12.5524 5.17467 14.0457 6.66667 15.8857 6.66667ZM9.45373 21.6347C8.77906 20.8787 8.45906 19.8573 8.57506 18.832L9.45906 11.088C9.49106 10.808 9.55373 10.5387 9.62706 10.276C9.67506 10.104 9.65106 9.92 9.56173 9.764C9.47373 9.60933 9.32573 9.49733 9.15373 9.452C8.84573 9.372 8.57906 9.33467 8.3124 9.33467H5.0204C3.34306 9.33467 1.92039 10.5893 1.71373 12.2547L0.859062 19.0867C0.788395 19.656 0.964395 20.228 1.34439 20.6587C1.69506 21.056 2.18706 21.296 2.71239 21.3307L3.33506 30.0493C3.36039 30.3987 3.64973 30.668 4.00039 30.668H9.33373C9.68306 30.668 9.97373 30.3973 9.99906 30.0493L10.5124 22.8667C10.5311 22.6187 10.4097 22.3827 10.1991 22.2533C9.9124 22.0733 9.66173 21.8653 9.45373 21.6347ZM21.8711 18.9827L20.9871 11.2373C20.7764 9.392 19.3151 8 17.5884 8H14.1844C12.4577 8 10.9951 9.392 10.7857 11.2373L9.90173 18.9813C9.82706 19.6293 10.0271 20.272 10.4497 20.7467C10.8137 21.1547 11.2964 21.3907 11.8191 21.42L12.5551 31.3827C12.5804 31.7293 12.8711 32 13.2204 32H18.5537C18.9031 32 19.1924 31.7307 19.2191 31.3827L19.9551 21.42C20.4791 21.3907 20.9604 21.1533 21.3244 20.7467C21.7457 20.2747 21.9444 19.6293 21.8711 18.9827ZM31.1404 19.0867L30.2857 12.2533C30.0777 10.5893 28.6564 9.33333 26.9791 9.33333H23.6871C23.3164 9.33333 22.9431 9.39867 22.5764 9.52933C22.2484 9.64533 22.0657 9.99333 22.1551 10.3293C22.2204 10.576 22.2817 10.8267 22.3124 11.0867L23.1964 18.8307C23.3124 19.856 22.9924 20.8773 22.3177 21.6333C22.1711 21.7987 21.9911 21.9533 21.7551 22.1227C21.5657 22.2573 21.4604 22.4813 21.4777 22.712L22.0017 30.0467C22.0271 30.396 22.3164 30.6667 22.6671 30.6667H28.0004C28.3497 30.6667 28.6404 30.396 28.6657 30.048L29.2884 21.3293C29.8137 21.2947 30.3057 21.0547 30.6564 20.6573C31.0351 20.2267 31.2124 19.656 31.1404 19.0867Z" fill="white"/>
</g>
<defs>
<clipPath id="clip0_1_13332">
<rect width="32" height="32" fill="white"/>
</clipPath>
</defs>
</svg>
