<svg width="32" height="32" viewBox="0 0 32 32" fill="none" xmlns="http://www.w3.org/2000/svg">
<path d="M28.5 26H3.5C3.10218 26 2.72064 26.158 2.43934 26.4393C2.15804 26.7206 2 27.1022 2 27.5V29.5C2 29.6326 2.05268 29.7598 2.14645 29.8536C2.24021 29.9473 2.36739 30 2.5 30H29.5C29.6326 30 29.7598 29.9473 29.8536 29.8536C29.9473 29.7598 30 29.6326 30 29.5V27.5C30 27.1022 29.842 26.7206 29.5607 26.4393C29.2794 26.158 28.8978 26 28.5 26Z" fill="white"/>
<path d="M14.2074 24.9999L14.4739 17.0694C14.0504 16.8669 11.8284 16.1404 11.3404 15.9739C11.2495 15.9434 11.1693 15.8873 11.1094 15.8124L9.10936 13.3124C9.02752 13.2088 8.99003 13.0769 9.00505 12.9457C9.02007 12.8145 9.0864 12.6946 9.18955 12.6121C9.2927 12.5296 9.42429 12.4913 9.55559 12.5055C9.68689 12.5197 9.80724 12.5853 9.89036 12.6879L11.7984 15.0729C12.0119 15.1479 14.3729 15.9269 14.4924 16.0009C14.1424 14.3879 14.0334 10.2289 12.8174 9.00093H18.8394C17.5589 10.3759 17.3794 14.5824 17.0969 16.3594L17.3264 22.9254L17.8229 22.9049L20.7359 22.5309L22.6094 20.1889C22.6635 20.1222 22.7339 20.0705 22.8139 20.0389L25.3139 19.0389C25.3748 19.0145 25.44 19.0023 25.5057 19.0031C25.5714 19.0039 25.6362 19.0175 25.6966 19.0434C25.757 19.0692 25.8117 19.1067 25.8576 19.1537C25.9035 19.2007 25.9397 19.2562 25.9641 19.3172C25.9885 19.3781 26.0007 19.4433 25.9999 19.509C25.9992 19.5747 25.9855 19.6395 25.9597 19.6999C25.9338 19.7603 25.8963 19.815 25.8494 19.8609C25.8024 19.9068 25.7468 19.943 25.6859 19.9674L23.3079 20.9174L21.3904 23.3144C21.3093 23.416 21.1918 23.482 21.0629 23.4984L17.9064 23.9014L17.3609 23.9244L17.3999 24.9999H28.1954L28.4999 16.3589C28.5024 16.2944 28.4999 16.2299 28.4969 16.1649H25.2129C25.1206 16.165 25.0301 16.1396 24.9514 16.0914L22.2384 14.4259C22.1316 14.3605 22.0533 14.2575 22.0188 14.1371C21.9844 14.0168 21.9964 13.8879 22.0524 13.7759L23.0524 11.7759C23.1117 11.6572 23.2158 11.567 23.3416 11.525C23.4675 11.4831 23.6049 11.4928 23.7236 11.5522C23.8423 11.6115 23.9325 11.7156 23.9745 11.8415C24.0165 11.9673 24.0067 12.1047 23.9474 12.2234L23.1499 13.8139L25.3499 15.1639H28.3734L27.6574 10.8604C27.5195 9.982 27.0552 9.18794 26.3574 8.63693C27.1804 7.98693 28.1984 6.91193 28.3644 5.84143L22.6769 5.02593L20.8539 6.85293C20.7597 6.94415 20.6335 6.99473 20.5024 6.99378C20.3712 6.99283 20.2458 6.94042 20.1529 6.84785C20.0601 6.75527 20.0073 6.62993 20.006 6.49883C20.0047 6.36773 20.0549 6.24135 20.1459 6.14693L22.1459 4.14243C22.2007 4.08724 22.2677 4.04562 22.3415 4.02088C22.4153 3.99614 22.4938 3.98897 22.5709 3.99993L28.2939 4.82193C27.7619 3.56093 26.5759 1.98743 25.0629 1.99993H19.7769C18.2609 1.98393 18.1769 4.01443 17.3089 4.88493L15.2809 4.07393L14.4809 3.27643C14.4268 2.92198 14.2479 2.59853 13.9763 2.36445C13.7047 2.13036 13.3584 2.00108 12.9999 1.99993H6.93686C5.46086 1.97093 4.37586 3.47193 3.75736 4.64093C5.33736 5.01443 6.80736 5.35993 7.22586 5.44993C7.33036 5.39693 7.51036 5.29143 7.66086 5.20343C8.76086 4.56093 9.81086 4.00343 10.6354 4.23693C10.7005 4.25294 10.7617 4.2819 10.8154 4.32207C10.8691 4.36225 10.9142 4.41281 10.948 4.47076C10.9817 4.52871 11.0035 4.59286 11.0119 4.65939C11.0204 4.72592 11.0154 4.79347 10.9972 4.85803C10.979 4.92258 10.948 4.98282 10.9061 5.03515C10.8641 5.08748 10.8121 5.13084 10.7531 5.16265C10.694 5.19445 10.6292 5.21406 10.5624 5.22029C10.4956 5.22652 10.4283 5.21926 10.3644 5.19893C9.88036 5.06293 8.72286 5.74043 8.16436 6.06643C7.69086 6.34343 7.48036 6.46643 7.26436 6.46643C7.23641 6.46625 7.2085 6.46408 7.18086 6.45993C7.03086 6.43893 5.28386 6.02943 3.61186 5.63393C3.66786 6.79143 4.74986 7.90493 5.59986 8.60993C4.89938 9.17097 4.43739 9.9765 4.30686 10.8644L3.63536 15.0644L4.27886 15.5774L7.22536 17.0539C7.33464 17.109 7.42013 17.2019 7.46586 17.3154L8.33836 19.4999H10.4999C10.6325 19.4999 10.7596 19.5526 10.8534 19.6464C10.9472 19.7401 10.9999 19.8673 10.9999 19.9999C10.9999 20.1325 10.9472 20.2597 10.8534 20.3535C10.7596 20.4472 10.6325 20.4999 10.4999 20.4999H7.99986C7.89992 20.5 7.80225 20.4701 7.71946 20.4142C7.63666 20.3582 7.57254 20.2787 7.53536 20.1859L6.60586 17.8624C6.43586 17.7594 3.53736 16.3794 3.50586 16.2384C3.50586 16.2784 3.79436 24.9999 3.79436 24.9999H14.2074Z" fill="white"/>
</svg>
