<svg width="20" height="20" viewBox="0 0 20 20" fill="none" xmlns="http://www.w3.org/2000/svg">
<path d="M4.90156 18.1035C3.6668 18.1035 2.66211 17.0989 2.66211 15.8641C2.66211 14.6293 3.6668 13.6246 4.90156 13.6246C6.13633 13.6246 7.14102 14.6293 7.14102 15.8641C7.14141 17.0989 6.13672 18.1035 4.90156 18.1035ZM4.90156 13.8199C3.77422 13.8199 2.85742 14.7371 2.85742 15.8641C2.85742 16.9914 3.77461 17.9082 4.90156 17.9082C6.02891 17.9082 6.9457 16.991 6.9457 15.8641C6.94609 14.7367 6.02891 13.8199 4.90156 13.8199Z" fill="#F7F7F0"/>
<path d="M13.2773 15.9617H7.96484C7.91094 15.9617 7.86719 15.918 7.86719 15.8641C7.86719 15.8102 7.91094 15.7664 7.96484 15.7664H13.2773C13.3313 15.7664 13.375 15.8102 13.375 15.8641C13.375 15.918 13.3313 15.9617 13.2773 15.9617Z" fill="#F7F7F0"/>
<path d="M15.6211 10.9008C15.5672 10.9008 15.5234 10.9445 15.5234 10.9984C15.5234 11.0523 15.5672 11.0961 15.6211 11.0961H16.427V11.3648C16.427 11.4188 16.4707 11.4625 16.5246 11.4625C16.5785 11.4625 16.6223 11.4188 16.6223 11.3648V8.85039C16.6223 8.6457 16.4559 8.4793 16.2512 8.4793H15.6211C15.5672 8.4793 15.5234 8.52305 15.5234 8.57695C15.5234 8.63086 15.5672 8.67461 15.6211 8.67461H16.2512C16.348 8.67461 16.427 8.75352 16.427 8.85039V9.12266H15.6211C15.5672 9.12266 15.5234 9.16641 15.5234 9.22031C15.5234 9.27422 15.5672 9.31797 15.6211 9.31797H16.427V9.71524H15.6211C15.5672 9.71524 15.5234 9.75899 15.5234 9.81289C15.5234 9.8668 15.5672 9.91055 15.6211 9.91055H16.427V10.3078H15.6211C15.5672 10.3078 15.5234 10.3516 15.5234 10.4055C15.5234 10.4594 15.5672 10.5031 15.6211 10.5031H16.427V10.9004H15.6211V10.9008Z" fill="#F7F7F0"/>
<path d="M13.4014 10.9008C13.3475 10.9008 13.3037 10.9445 13.3037 10.9984C13.3037 11.0523 13.3475 11.0961 13.4014 11.0961H14.2072V11.3648C14.2072 11.4187 14.251 11.4625 14.3049 11.4625C14.3588 11.4625 14.4025 11.4187 14.4025 11.3648V8.85038C14.4025 8.64569 14.2361 8.47929 14.0314 8.47929H13.4014C13.3475 8.47929 13.3037 8.52304 13.3037 8.57694C13.3037 8.63085 13.3475 8.6746 13.4014 8.6746H14.0314C14.1283 8.6746 14.2072 8.7535 14.2072 8.85038V9.12265H13.4014C13.3475 9.12265 13.3037 9.1664 13.3037 9.2203C13.3037 9.27421 13.3475 9.31796 13.4014 9.31796H14.2072V9.71522H13.4014C13.3475 9.71522 13.3037 9.75897 13.3037 9.81288C13.3037 9.86679 13.3475 9.91054 13.4014 9.91054H14.2072V10.3078H13.4014C13.3475 10.3078 13.3037 10.3516 13.3037 10.4055C13.3037 10.4594 13.3475 10.5031 13.4014 10.5031H14.2072V10.9004H13.4014V10.9008Z" fill="#F7F7F0"/>
<path d="M11.3232 10.9008C11.2693 10.9008 11.2256 10.9445 11.2256 10.9984C11.2256 11.0523 11.2693 11.0961 11.3232 11.0961H12.1291V11.3648C12.1291 11.4187 12.1729 11.4625 12.2268 11.4625C12.2807 11.4625 12.3244 11.4187 12.3244 11.3648V8.85038C12.3244 8.64569 12.158 8.47929 11.9533 8.47929H11.3232C11.2693 8.47929 11.2256 8.52304 11.2256 8.57694C11.2256 8.63085 11.2693 8.6746 11.3232 8.6746H11.9533C12.0502 8.6746 12.1291 8.7535 12.1291 8.85038V9.12265H11.3232C11.2693 9.12265 11.2256 9.1664 11.2256 9.2203C11.2256 9.27421 11.2693 9.31796 11.3232 9.31796H12.1291V9.71522H11.3232C11.2693 9.71522 11.2256 9.75897 11.2256 9.81288C11.2256 9.86679 11.2693 9.91054 11.3232 9.91054H12.1291V10.3078H11.3232C11.2693 10.3078 11.2256 10.3516 11.2256 10.4055C11.2256 10.4594 11.2693 10.5031 11.3232 10.5031H12.1291V10.9004H11.3232V10.9008Z" fill="#F7F7F0"/>
<path d="M2.52576 5.61211C2.54529 6.82383 2.58982 8.03516 2.64177 9.24609C2.65036 9.74688 3.09646 10.1582 3.59607 10.116C4.90857 10.0539 6.22146 9.97813 7.53318 9.89336C7.84646 9.92539 8.16091 9.69649 8.23787 9.38828C8.26951 9.275 8.27537 9.01914 8.28904 8.90195C8.38279 7.69219 8.44372 6.47969 8.48865 5.26797C8.49099 5.09492 8.44724 4.91602 8.35662 4.76445C8.20076 4.49336 7.90622 4.30859 7.59372 4.28789C7.52927 4.28242 7.25505 4.27813 7.18865 4.275C6.38122 4.25234 5.57341 4.24141 4.76599 4.23281L3.55466 4.22734C3.27068 4.22774 2.98552 4.35078 2.79411 4.56211C2.62458 4.74375 2.52419 4.99023 2.52107 5.23906C2.51833 5.2793 2.52654 5.56875 2.52576 5.61211ZM3.36326 9.24609C3.39841 8.43867 3.42888 7.63086 3.45232 6.82344C3.46599 6.30938 3.47849 5.78633 3.48474 5.27148C3.48747 5.23359 3.51482 5.2043 3.55466 5.20391C4.26638 5.2043 5.27576 5.19297 5.97732 5.18281C6.50076 5.17344 7.03357 5.16172 7.55779 5.14688C7.62185 5.15234 7.67302 5.20234 7.68201 5.26797C7.72693 6.47969 7.78787 7.69219 7.88162 8.90195C7.88357 8.9418 7.91013 9.23906 7.91091 9.26992C7.92654 9.4875 7.74919 9.67852 7.53318 9.7043C6.3238 9.62383 5.11052 9.55586 3.89919 9.49531L3.59646 9.48086C3.52654 9.48203 3.45505 9.45742 3.41052 9.40234C3.37224 9.35938 3.35701 9.30039 3.36326 9.24609Z" fill="#F7F7F0"/>
<path d="M19.5888 15.0961C19.2342 14.2238 18.8799 13.3512 18.5197 12.4812C18.508 11.3605 18.4904 10.2367 18.4681 9.11602C18.467 8.01289 17.5697 7.15156 16.467 7.21133C15.9916 7.22461 15.5166 7.23867 15.0412 7.25391C15.1552 6.98594 15.2584 6.71445 15.3595 6.44141C15.5342 5.96484 15.692 5.475 15.8392 4.99023C15.8459 4.96602 15.8881 4.82773 15.8935 4.80742C15.9752 4.52148 15.8853 4.19922 15.6717 3.99336C15.5185 3.83945 15.2994 3.75273 15.0818 3.75117C14.2701 3.72383 13.458 3.72344 12.6463 3.75078C12.1955 3.74805 11.8041 4.12734 11.8045 4.57969C11.8025 4.66914 11.8181 4.75937 11.8447 4.84414C12.0982 5.68711 12.372 6.5293 12.724 7.33828C11.9037 7.37266 11.0838 7.4125 10.2642 7.45937C10.2724 7.10898 10.2799 6.75859 10.2869 6.40859C10.3127 5.24531 10.3263 3.98359 10.3412 2.81602C10.3635 2.13281 9.78884 1.54531 9.10642 1.54922C8.06345 1.54023 6.23064 1.5375 5.17087 1.53672C4.12751 1.53789 3.06736 1.54141 2.02322 1.54922C1.32751 1.51641 0.722436 2.08711 0.726342 2.78398C0.772436 7.1043 0.859936 11.4273 1.08806 15.7441C0.933764 15.7523 0.779077 15.7602 0.62478 15.7687C0.577124 15.7715 0.538061 15.8094 0.535327 15.8582C0.532202 15.9105 0.572436 15.9559 0.62478 15.9586C1.17595 15.9895 1.72712 16.0172 2.2783 16.0434C2.39978 17.7672 4.24665 18.8973 5.83806 18.1234C6.57283 17.7742 7.08415 17.0211 7.14314 16.2215C9.04119 16.2719 10.9396 16.3031 12.8385 16.3242C13.1279 17.8867 14.8592 18.8543 16.3623 18.1234C17.0568 17.7934 17.5513 17.1023 17.6533 16.3523C18.0424 16.3523 18.4224 16.3516 18.7826 16.35C19.4388 16.3559 19.8611 15.6836 19.5888 15.0961ZM15.0463 4.6C15.0467 4.6 15.047 4.59883 15.0474 4.6L15.0459 4.60937C15.0439 4.6207 15.042 4.63242 15.04 4.64375C15.0357 4.62852 15.0377 4.61094 15.0463 4.6ZM12.6888 4.6418C12.6857 4.62305 12.683 4.60781 12.6814 4.6C12.69 4.60508 12.692 4.62578 12.6888 4.6418ZM12.9857 6.92227C12.9314 6.21094 12.8322 5.49961 12.7154 4.79688C12.7123 4.7793 12.7045 4.73281 12.697 4.68867C13.0861 4.70117 13.4752 4.70742 13.8642 4.70742C14.2537 4.70742 14.6431 4.70078 15.0326 4.68828C14.9408 5.225 14.8599 5.76953 14.8002 6.31055C14.7666 6.62812 14.7365 6.94492 14.7209 7.26406C14.151 7.28281 13.5806 7.30352 13.0107 7.32656C13.0049 7.19141 12.9959 7.05664 12.9857 6.92227ZM10.8935 7.69922C12.781 7.79805 14.6709 7.86211 16.5599 7.91523C17.1049 7.93828 17.5705 8.35039 17.64 8.89297C17.6424 8.91641 17.6467 8.93945 17.6486 8.96289L17.6498 9.03359L17.651 9.06875L17.6502 9.11602C17.6275 10.2426 17.6103 11.3723 17.5986 12.4984H11.1787C11.0029 12.4984 10.8322 12.4258 10.7103 12.2988L10.1674 11.7336C10.1576 11.7234 10.1474 11.7133 10.1369 11.7035C10.1885 10.357 10.2275 9.00937 10.2588 7.66406C10.4705 7.67656 10.6818 7.68789 10.8935 7.69922ZM4.23923 17.4645C3.63767 17.1734 3.24197 16.5301 3.24822 15.8641C3.24353 15.0043 3.88806 14.2793 4.7322 14.1445C5.8283 13.9781 6.7865 14.782 6.94978 15.8641C6.82634 17.184 5.45134 18.0523 4.23923 17.4645ZM14.7631 17.4645C14.1615 17.1734 13.7658 16.5301 13.772 15.8641C13.7674 15.0043 14.4119 14.2793 15.256 14.1445C16.3521 13.9781 17.3103 14.782 17.4736 15.8641C17.3506 17.184 15.9756 18.0523 14.7631 17.4645ZM17.7345 15.3758C17.7146 15.3758 17.6951 15.3758 17.6752 15.3758C17.592 14.5258 16.9756 13.7516 16.1541 13.4633C14.6541 12.9309 13.108 13.9129 12.8377 15.4031C10.9447 15.4227 9.05173 15.4543 7.15915 15.5051C7.12947 14.6051 6.49275 13.7656 5.62986 13.4633C4.03728 12.898 2.39275 14.0398 2.2783 15.6844C1.94978 15.7 1.62087 15.7164 1.29236 15.7332C1.44705 12.8668 1.52908 10.0004 1.58962 7.13359C1.60837 6.07812 1.6322 4.91055 1.64275 3.84922L1.65486 2.7793C1.66111 2.70625 1.69236 2.63867 1.74431 2.5875C1.8197 2.50859 1.92205 2.49219 2.02283 2.49844C2.09392 2.49805 2.36619 2.50156 2.43337 2.50117C4.32712 2.51367 6.55369 2.51406 8.45486 2.50273L9.00251 2.5L9.11775 2.49961C9.27517 2.50156 9.41189 2.64219 9.41189 2.79922C9.41462 3.0207 9.42556 3.98125 9.42869 4.21914C9.4658 6.63594 9.5158 9.05703 9.60681 11.4754C9.5904 11.4746 9.574 11.4738 9.55798 11.4738H2.30173C2.24783 11.4738 2.20408 11.5176 2.20408 11.5715C2.20408 11.6254 2.24783 11.6691 2.30173 11.6691H9.55837C9.57712 11.6691 9.59587 11.6703 9.61462 11.6719C9.65954 12.8379 9.71423 14.0035 9.78181 15.1672C9.78494 15.2141 9.82244 15.2527 9.87048 15.2559C9.92283 15.2594 9.96814 15.2195 9.97165 15.1672C10.0338 14.1043 10.0845 13.0391 10.1267 11.9727L10.5697 12.4336C10.7283 12.5984 10.9502 12.6934 11.1791 12.6934H17.6135C17.6181 12.7113 17.6236 12.7289 17.6306 12.7461C17.9662 13.6172 18.3236 14.5219 18.6592 15.3777C18.3982 15.3777 17.9263 15.3754 17.7345 15.3758Z" fill="#F7F7F0"/>
</svg>
