<svg width="48" height="48" viewBox="0 0 48 48" fill="none" xmlns="http://www.w3.org/2000/svg">
<rect width="48" height="48" fill="#F7F7F0"/>
<path d="M23.7267 36.0001H14.6667C13.9594 36.0001 13.2811 35.7191 12.781 35.219C12.281 34.7189 12 34.0407 12 33.3334V17.3334C12 16.6262 12.281 15.9479 12.781 15.4478C13.2811 14.9477 13.9594 14.6667 14.6667 14.6667H30.6667C31.3739 14.6667 32.0522 14.9477 32.5523 15.4478C33.0524 15.9479 33.3333 16.6262 33.3333 17.3334V22.6667M32 26.6667V32.0001H37.3333" stroke="#8C39FC" stroke-width="2.3" stroke-linecap="round" stroke-linejoin="round"/>
<path d="M28 12V17.3333M17.3333 12V17.3333M12 22.6667H33.3333M26.6667 32C26.6667 33.4145 27.2286 34.771 28.2288 35.7712C29.229 36.7714 30.5855 37.3333 32 37.3333C33.4145 37.3333 34.771 36.7714 35.7712 35.7712C36.7714 34.771 37.3333 33.4145 37.3333 32C37.3333 30.5855 36.7714 29.229 35.7712 28.2288C34.771 27.2286 33.4145 26.6667 32 26.6667C30.5855 26.6667 29.229 27.2286 28.2288 28.2288C27.2286 29.229 26.6667 30.5855 26.6667 32Z" stroke="#8C39FC" stroke-width="2.3" stroke-linecap="round" stroke-linejoin="round"/>
</svg>
