<svg width="19" height="19" viewBox="0 0 19 19" fill="none" xmlns="http://www.w3.org/2000/svg">
<path d="M14.7563 15.7189L14.271 15.6916C14.4109 14.7671 14.4085 13.8245 14.2553 12.8864C14.2378 12.7775 14.1508 12.6933 14.0415 12.6789L13.3145 12.5834C13.1398 10.8342 12.8701 9.13692 12.4463 7.12661C12.4244 6.97869 12.3658 6.84386 12.2822 6.72783C12.3172 6.64557 12.341 6.51872 12.33 6.41616C12.2348 4.86513 12.0337 3.46059 11.7163 2.12172C11.7043 2.07098 11.6457 1.9705 11.5454 1.94008C11.2719 1.85737 9.35318 1.31662 9.07858 1.35878C8.34371 1.47011 7.79049 1.67324 7.38668 1.98037C7.38397 1.98244 7.30098 2.10047 7.29928 2.1061C6.7481 3.90071 6.72477 6.32434 6.62447 7.04653C6.24548 8.50844 5.99221 10.207 5.80566 12.5216L4.95455 12.6811C4.85397 12.6998 4.77535 12.7777 4.75533 12.8778C4.58706 13.7211 4.58407 14.6411 4.73666 15.6798L4.2485 15.7191C4.15865 15.7265 4.07955 15.7814 4.04147 15.8632C3.81832 16.3456 3.81539 16.8895 4.03414 17.4801C4.07174 17.5817 4.17721 17.6498 4.27828 17.6432L8.37667 17.4835C17.096 17.7028 14.0827 17.627 14.7358 17.6435H14.7422C14.8452 17.6435 14.938 17.5802 14.9755 17.4835C15.1792 16.956 15.1797 16.4164 14.976 15.8798C14.9409 15.7875 14.8549 15.7243 14.7563 15.7189ZM7.60699 2.91338C7.74274 2.62271 7.98285 2.39098 8.2929 2.29201C8.42519 2.25283 8.55752 2.3214 8.60165 2.45373C8.64083 2.58114 8.56735 2.71834 8.4399 2.75756C8.12136 2.86046 7.91067 3.25252 8.00866 3.57107C8.07873 3.80745 7.79096 3.98579 7.61663 3.83077C7.58233 3.80135 7.55294 3.76214 7.5382 3.71316C7.51418 3.63192 7.50234 3.54867 7.49795 3.46538C7.53103 3.27697 7.56713 3.09258 7.60699 2.91338ZM9.26782 5.7513L9.35925 1.92095L11.2495 2.38222L11.8216 6.3893C11.469 6.2751 10.7595 5.90497 9.26782 5.7513ZM13.7959 15.5136L8.87695 15.2176C8.90968 14.2078 8.91855 13.3674 8.97424 12.518L13.79 13.15C13.9018 13.9408 13.9043 14.734 13.7959 15.5136ZM12.8061 12.5145L8.99758 11.9904L9.25063 6.27306L11.6406 6.85732C11.7924 6.8934 11.9245 7.02053 11.9541 7.2145C12.3676 9.17568 12.6333 10.8253 12.8061 12.5145ZM14.5644 17.1388L8.86483 16.9905L8.84042 15.8853L14.559 16.2084C14.6508 16.5228 14.6523 16.8295 14.5644 17.1388Z" fill="#5A4A6E"/>
</svg>
