<svg preserveAspectRatio="none" width="100%" height="100%" overflow="visible" style="display: block;" viewBox="0 0 20 20" fill="none" xmlns="http://www.w3.org/2000/svg">
<g id="Master_Line">
<path id="Vector" d="M4.90156 18.1034C3.6668 18.1034 2.66211 17.0987 2.66211 15.864C2.66211 14.6292 3.6668 13.6245 4.90156 13.6245C6.13633 13.6245 7.14102 14.6292 7.14102 15.864C7.14141 17.0987 6.13672 18.1034 4.90156 18.1034ZM4.90156 13.8198C3.77422 13.8198 2.85742 14.737 2.85742 15.864C2.85742 16.9913 3.77461 17.9081 4.90156 17.9081C6.02891 17.9081 6.9457 16.9909 6.9457 15.864C6.94609 14.7366 6.02891 13.8198 4.90156 13.8198Z" fill="var(--fill-0, #414651)"/>
<path id="Vector_2" d="M13.2773 15.9617H7.96484C7.91094 15.9617 7.86719 15.9179 7.86719 15.864C7.86719 15.8101 7.91094 15.7664 7.96484 15.7664H13.2773C13.3312 15.7664 13.375 15.8101 13.375 15.864C13.375 15.9179 13.3312 15.9617 13.2773 15.9617Z" fill="var(--fill-0, #414651)"/>
<g id="Group">
<path id="Vector_3" d="M15.6215 10.9008C15.5676 10.9008 15.5238 10.9445 15.5238 10.9984C15.5238 11.0523 15.5676 11.0961 15.6215 11.0961H16.4273V11.3648C16.4273 11.4188 16.4711 11.4625 16.525 11.4625C16.5789 11.4625 16.6227 11.4188 16.6227 11.3648V8.85039C16.6227 8.6457 16.4563 8.4793 16.2516 8.4793H15.6215C15.5676 8.4793 15.5238 8.52305 15.5238 8.57695C15.5238 8.63086 15.5676 8.67461 15.6215 8.67461H16.2516C16.3484 8.67461 16.4273 8.75352 16.4273 8.85039V9.12266H15.6215C15.5676 9.12266 15.5238 9.16641 15.5238 9.22031C15.5238 9.27422 15.5676 9.31797 15.6215 9.31797H16.4273V9.71524H15.6215C15.5676 9.71524 15.5238 9.75899 15.5238 9.81289C15.5238 9.8668 15.5676 9.91055 15.6215 9.91055H16.4273V10.3078H15.6215C15.5676 10.3078 15.5238 10.3516 15.5238 10.4055C15.5238 10.4594 15.5676 10.5031 15.6215 10.5031H16.4273V10.9004H15.6215V10.9008Z" fill="var(--fill-0, #414651)"/>
<path id="Vector_4" d="M13.4016 10.9008C13.3477 10.9008 13.3039 10.9446 13.3039 10.9985C13.3039 11.0524 13.3477 11.0961 13.4016 11.0961H14.2074V11.3649C14.2074 11.4188 14.2512 11.4625 14.3051 11.4625C14.359 11.4625 14.4028 11.4188 14.4028 11.3649V8.85044C14.4028 8.64575 14.2364 8.47935 14.0317 8.47935H13.4016C13.3477 8.47935 13.3039 8.5231 13.3039 8.577C13.3039 8.63091 13.3477 8.67466 13.4016 8.67466H14.0317C14.1285 8.67466 14.2074 8.75356 14.2074 8.85044V9.1227H13.4016C13.3477 9.1227 13.3039 9.16645 13.3039 9.22036C13.3039 9.27427 13.3477 9.31802 13.4016 9.31802H14.2074V9.71528H13.4016C13.3477 9.71528 13.3039 9.75903 13.3039 9.81294C13.3039 9.86685 13.3477 9.9106 13.4016 9.9106H14.2074V10.3079H13.4016C13.3477 10.3079 13.3039 10.3516 13.3039 10.4055C13.3039 10.4594 13.3477 10.5032 13.4016 10.5032H14.2074V10.9004H13.4016V10.9008Z" fill="var(--fill-0, #414651)"/>
<path id="Vector_5" d="M11.3235 10.9008C11.2696 10.9008 11.2258 10.9446 11.2258 10.9985C11.2258 11.0524 11.2696 11.0961 11.3235 11.0961H12.1293V11.3649C12.1293 11.4188 12.1731 11.4625 12.227 11.4625C12.2809 11.4625 12.3246 11.4188 12.3246 11.3649V8.85044C12.3246 8.64575 12.1582 8.47935 11.9535 8.47935H11.3235C11.2696 8.47935 11.2258 8.5231 11.2258 8.577C11.2258 8.63091 11.2696 8.67466 11.3235 8.67466H11.9535C12.0504 8.67466 12.1293 8.75356 12.1293 8.85044V9.1227H11.3235C11.2696 9.1227 11.2258 9.16645 11.2258 9.22036C11.2258 9.27427 11.2696 9.31802 11.3235 9.31802H12.1293V9.71528H11.3235C11.2696 9.71528 11.2258 9.75903 11.2258 9.81294C11.2258 9.86685 11.2696 9.9106 11.3235 9.9106H12.1293V10.3079H11.3235C11.2696 10.3079 11.2258 10.3516 11.2258 10.4055C11.2258 10.4594 11.2696 10.5032 11.3235 10.5032H12.1293V10.9004H11.3235V10.9008Z" fill="var(--fill-0, #414651)"/>
<path id="Vector_6" d="M2.52578 5.61211C2.54531 6.82383 2.58984 8.03516 2.6418 9.24609C2.65039 9.74688 3.09648 10.1582 3.59609 10.116C4.90859 10.0539 6.22148 9.97813 7.5332 9.89336C7.84648 9.92539 8.16094 9.69648 8.23789 9.38828C8.26953 9.275 8.27539 9.01914 8.28906 8.90195C8.38281 7.69219 8.44375 6.47969 8.48867 5.26797C8.49102 5.09492 8.44727 4.91602 8.35664 4.76445C8.20078 4.49336 7.90625 4.30859 7.59375 4.28789C7.5293 4.28242 7.25508 4.27813 7.18867 4.275C6.38125 4.25234 5.57344 4.24141 4.76602 4.23281L3.55469 4.22734C3.2707 4.22773 2.98555 4.35078 2.79414 4.56211C2.62461 4.74375 2.52422 4.99023 2.52109 5.23906C2.51836 5.2793 2.52656 5.56875 2.52578 5.61211ZM3.36328 9.24609C3.39844 8.43867 3.42891 7.63086 3.45234 6.82344C3.46602 6.30937 3.47852 5.78633 3.48477 5.27148C3.4875 5.23359 3.51484 5.2043 3.55469 5.20391C4.26641 5.2043 5.27578 5.19297 5.97734 5.18281C6.50078 5.17344 7.03359 5.16172 7.55781 5.14688C7.62188 5.15234 7.67305 5.20234 7.68203 5.26797C7.72695 6.47969 7.78789 7.69219 7.88164 8.90195C7.88359 8.9418 7.91016 9.23906 7.91094 9.26992C7.92656 9.4875 7.74922 9.67852 7.5332 9.7043C6.32383 9.62383 5.11055 9.55586 3.89922 9.49531L3.59648 9.48086C3.52656 9.48203 3.45508 9.45742 3.41055 9.40234C3.37227 9.35938 3.35703 9.30039 3.36328 9.24609Z" fill="var(--fill-0, #414651)"/>
<path id="Vector_7" d="M19.5891 15.0961C19.2344 14.2238 18.8801 13.3512 18.5199 12.4812C18.5082 11.3605 18.4906 10.2367 18.4684 9.11602C18.4672 8.01289 17.5699 7.15156 16.4672 7.21133C15.9918 7.22461 15.5168 7.23867 15.0414 7.25391C15.1555 6.98594 15.2586 6.71445 15.3598 6.44141C15.5344 5.96484 15.6922 5.475 15.8395 4.99023C15.8461 4.96602 15.8883 4.82773 15.8938 4.80742C15.9754 4.52148 15.8855 4.19922 15.6719 3.99336C15.5188 3.83945 15.2996 3.75273 15.082 3.75117C14.2703 3.72383 13.4582 3.72344 12.6465 3.75078C12.1957 3.74805 11.8043 4.12734 11.8047 4.57969C11.8027 4.66914 11.8184 4.75937 11.8449 4.84414C12.0984 5.68711 12.3723 6.5293 12.7242 7.33828C11.9039 7.37266 11.084 7.4125 10.2645 7.45938C10.2727 7.10898 10.2801 6.75859 10.2871 6.40859C10.3129 5.24531 10.3266 3.98359 10.3414 2.81602C10.3637 2.13281 9.78906 1.54531 9.10664 1.54922C8.06367 1.54023 6.23086 1.5375 5.17109 1.53672C4.12773 1.53789 3.06758 1.54141 2.02344 1.54922C1.32773 1.51641 0.722656 2.08711 0.726563 2.78398C0.772656 7.1043 0.860156 11.4273 1.08828 15.7441C0.933984 15.7523 0.779297 15.7602 0.625 15.7687C0.577344 15.7715 0.538281 15.8094 0.535547 15.8582C0.532422 15.9105 0.572656 15.9559 0.625 15.9586C1.17617 15.9895 1.72734 16.0172 2.27852 16.0434C2.4 17.7672 4.24688 18.8973 5.83828 18.1234C6.57305 17.7742 7.08437 17.0211 7.14336 16.2215C9.04141 16.2719 10.9398 16.3031 12.8387 16.3242C13.1281 17.8867 14.8594 18.8543 16.3625 18.1234C17.057 17.7934 17.5516 17.1023 17.6535 16.3523C18.0426 16.3523 18.4227 16.3516 18.7828 16.35C19.4391 16.3559 19.8613 15.6836 19.5891 15.0961ZM15.0465 4.6C15.0469 4.6 15.0473 4.59883 15.0477 4.6L15.0461 4.60938C15.0441 4.6207 15.0422 4.63242 15.0402 4.64375C15.0359 4.62852 15.0379 4.61094 15.0465 4.6ZM12.6891 4.6418C12.6859 4.62305 12.6832 4.60781 12.6816 4.6C12.6902 4.60508 12.6922 4.62578 12.6891 4.6418ZM12.9859 6.92227C12.9316 6.21094 12.8324 5.49961 12.7156 4.79688C12.7125 4.7793 12.7047 4.73281 12.6973 4.68867C13.0863 4.70117 13.4754 4.70742 13.8645 4.70742C14.2539 4.70742 14.6434 4.70078 15.0328 4.68828C14.941 5.225 14.8602 5.76953 14.8004 6.31055C14.7668 6.62813 14.7367 6.94492 14.7211 7.26406C14.1512 7.28281 13.5809 7.30352 13.0109 7.32656C13.0051 7.19141 12.9961 7.05664 12.9859 6.92227ZM10.8938 7.69922C12.7813 7.79805 14.6711 7.86211 16.5602 7.91523C17.1051 7.93828 17.5707 8.35039 17.6402 8.89297C17.6426 8.91641 17.6469 8.93945 17.6488 8.96289L17.65 9.03359L17.6512 9.06875L17.6504 9.11602C17.6277 10.2426 17.6105 11.3723 17.5988 12.4984H11.1789C11.0031 12.4984 10.8324 12.4258 10.7105 12.2988L10.1676 11.7336C10.1578 11.7234 10.1477 11.7133 10.1371 11.7035C10.1887 10.357 10.2277 9.00937 10.259 7.66406C10.4707 7.67656 10.682 7.68789 10.8938 7.69922ZM4.23945 17.4645C3.63789 17.1734 3.24219 16.5301 3.24844 15.8641C3.24375 15.0043 3.88828 14.2793 4.73242 14.1445C5.82852 13.9781 6.78672 14.782 6.95 15.8641C6.82656 17.184 5.45156 18.0523 4.23945 17.4645ZM14.7633 17.4645C14.1617 17.1734 13.766 16.5301 13.7723 15.8641C13.7676 15.0043 14.4121 14.2793 15.2563 14.1445C16.3523 13.9781 17.3105 14.782 17.4738 15.8641C17.3508 17.184 15.9758 18.0523 14.7633 17.4645ZM17.7348 15.3758C17.7148 15.3758 17.6953 15.3758 17.6754 15.3758C17.5922 14.5258 16.9758 13.7516 16.1543 13.4633C14.6543 12.9309 13.1082 13.9129 12.8379 15.4031C10.9449 15.4227 9.05195 15.4543 7.15937 15.5051C7.12969 14.6051 6.49297 13.7656 5.63008 13.4633C4.0375 12.898 2.39297 14.0398 2.27852 15.6844C1.95 15.7 1.62109 15.7164 1.29258 15.7332C1.44727 12.8668 1.5293 10.0004 1.58984 7.13359C1.60859 6.07812 1.63242 4.91055 1.64297 3.84922L1.65508 2.7793C1.66133 2.70625 1.69258 2.63867 1.74453 2.5875C1.81992 2.50859 1.92227 2.49219 2.02305 2.49844C2.09414 2.49805 2.36641 2.50156 2.43359 2.50117C4.32734 2.51367 6.55391 2.51406 8.45508 2.50273L9.00273 2.5L9.11797 2.49961C9.27539 2.50156 9.41211 2.64219 9.41211 2.79922C9.41484 3.0207 9.42578 3.98125 9.42891 4.21914C9.46602 6.63594 9.51602 9.05703 9.60703 11.4754C9.59062 11.4746 9.57422 11.4738 9.5582 11.4738H2.30195C2.24805 11.4738 2.2043 11.5176 2.2043 11.5715C2.2043 11.6254 2.24805 11.6691 2.30195 11.6691H9.55859C9.57734 11.6691 9.59609 11.6703 9.61484 11.6719C9.65977 12.8379 9.71445 14.0035 9.78203 15.1672C9.78516 15.2141 9.82266 15.2527 9.8707 15.2559C9.92305 15.2594 9.96836 15.2195 9.97187 15.1672C10.034 14.1043 10.0848 13.0391 10.127 11.9727L10.5699 12.4336C10.7285 12.5984 10.9504 12.6934 11.1793 12.6934H17.6137C17.6184 12.7113 17.6238 12.7289 17.6309 12.7461C17.9664 13.6172 18.3238 14.5219 18.6594 15.3777C18.3984 15.3777 17.9266 15.3754 17.7348 15.3758Z" fill="var(--fill-0, #414651)"/>
</g>
</g>
</svg>
