<svg width="24" height="24" viewBox="0 0 24 24" fill="none" xmlns="http://www.w3.org/2000/svg">
<path d="M22 10.5H2C1.17157 10.5 0.5 11.1716 0.5 12V17C0.5 17.8284 1.17157 18.5 2 18.5H22C22.8284 18.5 23.5 17.8284 23.5 17V12C23.5 11.1716 22.8284 10.5 22 10.5Z" stroke="#58496C" stroke-linecap="round" stroke-linejoin="round"/>
<path d="M1.5 18.5H6.5V20C6.5 20.3978 6.34196 20.7794 6.06066 21.0607C5.77936 21.342 5.39782 21.5 5 21.5H3C2.60218 21.5 2.22064 21.342 1.93934 21.0607C1.65804 20.7794 1.5 20.3978 1.5 20V18.5Z" stroke="#58496C" stroke-linecap="round" stroke-linejoin="round"/>
<path d="M17.5 18.5H22.5V20C22.5 20.3978 22.342 20.7794 22.0607 21.0607C21.7794 21.342 21.3978 21.5 21 21.5H19C18.6022 21.5 18.2206 21.342 17.9393 21.0607C17.658 20.7794 17.5 20.3978 17.5 20V18.5Z" stroke="#58496C" stroke-linecap="round" stroke-linejoin="round"/>
<path d="M4.5 16.5C5.60457 16.5 6.5 15.6046 6.5 14.5C6.5 13.3954 5.60457 12.5 4.5 12.5C3.39543 12.5 2.5 13.3954 2.5 14.5C2.5 15.6046 3.39543 16.5 4.5 16.5Z" stroke="#58496C" stroke-linecap="round" stroke-linejoin="round"/>
<path d="M19.5 16.5C20.6046 16.5 21.5 15.6046 21.5 14.5C21.5 13.3954 20.6046 12.5 19.5 12.5C18.3954 12.5 17.5 13.3954 17.5 14.5C17.5 15.6046 18.3954 16.5 19.5 16.5Z" stroke="#58496C" stroke-linecap="round" stroke-linejoin="round"/>
<path d="M8.5 13.5H15.5" stroke="#58496C" stroke-linecap="round" stroke-linejoin="round"/>
<path d="M8.5 15.5H15.5" stroke="#58496C" stroke-linecap="round" stroke-linejoin="round"/>
<path d="M2 10.5L3.84 4.61C4.03018 3.99782 4.41145 3.46264 4.92793 3.08293C5.44442 2.70321 6.06895 2.49892 6.71 2.5H17.29C17.9293 2.50106 18.5516 2.70633 19.0661 3.08589C19.5806 3.46545 19.9603 3.99945 20.15 4.61L22 10.5" stroke="#58496C" stroke-linecap="round" stroke-linejoin="round"/>
</svg>
