<svg width="24" height="24" viewBox="0 0 24 24" fill="none" xmlns="http://www.w3.org/2000/svg">
<path d="M12.0004 22.6001C9.70039 22.6001 7.90039 20.8001 7.90039 18.5001V18.0001C7.90039 17.7001 8.20039 17.4001 8.50039 17.4001H15.5004C15.8004 17.4001 16.1004 17.7001 16.1004 18.0001V18.5001C16.1004 20.8001 14.3004 22.6001 12.0004 22.6001ZM9.10039 18.6001C9.20039 20.2001 10.4004 21.4001 12.0004 21.4001C13.6004 21.4001 14.8004 20.2001 14.9004 18.6001H9.10039Z" fill="white"/>
<path d="M20.9998 18.5999H2.9998C2.7998 18.5999 2.5998 18.4999 2.4998 18.2999C2.3998 18.0999 2.3998 17.8999 2.4998 17.6999L3.4998 15.5999C4.0998 14.3999 4.3998 13.0999 4.3998 11.7999V8.9999C4.3998 4.7999 7.7998 1.3999 11.9998 1.3999C16.1998 1.3999 19.5998 4.7999 19.5998 8.9999V11.8999C19.5998 13.1999 19.8998 14.4999 20.4998 15.6999L21.4998 17.7999C21.5998 17.9999 21.5998 18.1999 21.4998 18.3999C21.3998 18.5999 21.1998 18.5999 20.9998 18.5999ZM3.9998 17.3999H19.9998L19.3998 16.1999C18.6998 14.8999 18.3998 13.3999 18.3998 11.8999V8.9999C18.3998 5.4999 15.4998 2.5999 11.9998 2.5999C8.4998 2.5999 5.5998 5.4999 5.5998 8.9999V11.8999C5.5998 13.3999 5.1998 14.8999 4.5998 16.1999L3.9998 17.3999Z" fill="white"/>
<path d="M11.4004 6H12.6004V11H11.4004V6Z" fill="white"/>
<path d="M12.0004 14.6001C11.4004 14.6001 10.9004 14.1001 10.9004 13.5001C10.9004 12.9001 11.4004 12.4001 12.0004 12.4001C12.6004 12.4001 13.1004 12.9001 13.1004 13.5001C13.1004 14.1001 12.6004 14.6001 12.0004 14.6001ZM12.0004 13.4001C11.9004 13.4001 11.9004 13.4001 11.9004 13.5001C11.9004 13.6001 12.1004 13.6001 12.1004 13.5001C12.1004 13.4001 12.1004 13.4001 12.0004 13.4001Z" fill="white"/>
<path d="M12.0004 14.1001C11.7004 14.1001 11.4004 13.8001 11.4004 13.5001C11.4004 13.2001 11.7004 12.9001 12.0004 12.9001C12.3004 12.9001 12.6004 13.2001 12.6004 13.5001C12.6004 13.8001 12.3004 14.1001 12.0004 14.1001Z" fill="white"/>
</svg>
