<svg width="24" height="24" viewBox="0 0 24 24" fill="none" xmlns="http://www.w3.org/2000/svg">
<path d="M9.009 10.75C9.84957 10.75 10.6713 10.5007 11.3702 10.0337C12.0691 9.56675 12.6138 8.90299 12.9355 8.12641C13.2572 7.34982 13.3413 6.49529 13.1773 5.67087C13.0134 4.84645 12.6086 4.08917 12.0142 3.4948C11.4198 2.90042 10.6626 2.49565 9.83813 2.33166C9.01371 2.16768 8.15918 2.25184 7.3826 2.57351C6.60601 2.89519 5.94225 3.43992 5.47525 4.13883C5.00826 4.83774 4.759 5.65943 4.759 6.5C4.76032 7.62677 5.20851 8.707 6.00526 9.50374C6.802 10.3005 7.88224 10.7487 9.009 10.75ZM9.009 3.75C9.5529 3.75 10.0846 3.91129 10.5368 4.21346C10.9891 4.51563 11.3415 4.94513 11.5497 5.44762C11.7578 5.95012 11.8123 6.50305 11.7062 7.0365C11.6 7.56995 11.3381 8.05995 10.9535 8.44455C10.5689 8.82914 10.0789 9.09105 9.5455 9.19716C9.01205 9.30327 8.45912 9.24881 7.95662 9.04067C7.45412 8.83253 7.02463 8.48005 6.72246 8.02782C6.42028 7.57558 6.259 7.0439 6.259 6.5C6.25979 5.7709 6.54978 5.07189 7.06533 4.55634C7.58089 4.04078 8.2799 3.7508 9.009 3.75ZM16.75 18.019V21C16.75 21.1989 16.671 21.3897 16.5303 21.5303C16.3897 21.671 16.1989 21.75 16 21.75C15.8011 21.75 15.6103 21.671 15.4697 21.5303C15.329 21.3897 15.25 21.1989 15.25 21V18.019C15.2967 17.4482 15.219 16.874 15.0222 16.3362C14.8254 15.7983 14.5142 15.3096 14.1101 14.9037C13.7061 14.4979 13.2187 14.1845 12.6818 13.9853C12.1448 13.7861 11.571 13.7058 11 13.75H7C6.42899 13.7058 5.85519 13.7861 5.31823 13.9853C4.78126 14.1845 4.29392 14.4979 3.88985 14.9037C3.48578 15.3096 3.17461 15.7983 2.97781 16.3362C2.78102 16.874 2.70329 17.4482 2.75 18.019V21C2.75 21.1989 2.67098 21.3897 2.53033 21.5303C2.38968 21.671 2.19891 21.75 2 21.75C1.80109 21.75 1.61032 21.671 1.46967 21.5303C1.32902 21.3897 1.25 21.1989 1.25 21V18.019C1.25 15.357 2.756 12.25 7 12.25H11C15.244 12.25 16.75 15.357 16.75 18.019ZM14.15 10.219C14.0074 10.0798 13.926 9.8896 13.9237 9.69034C13.9214 9.49108 13.9983 9.29906 14.1375 9.1565C14.2767 9.01395 14.4669 8.93254 14.6662 8.9302C14.8654 8.92786 15.0574 9.00476 15.2 9.144C15.5625 9.4974 16.0497 9.69359 16.556 9.69C16.8155 9.69281 17.0729 9.64378 17.3132 9.54577C17.5535 9.44777 17.7718 9.30276 17.9553 9.11927C18.1388 8.93577 18.2838 8.71748 18.3818 8.4772C18.4798 8.23692 18.5288 7.97949 18.526 7.72C18.5252 7.19777 18.3174 6.69715 17.9481 6.32788C17.5788 5.9586 17.0782 5.7508 16.556 5.75C16.269 5.74543 15.9851 5.80955 15.728 5.937C15.5507 6.02731 15.3448 6.04348 15.1556 5.98197C14.9663 5.92046 14.8093 5.7863 14.719 5.609C14.6287 5.4317 14.6125 5.2258 14.674 5.03657C14.7355 4.84735 14.8697 4.69031 15.047 4.6C15.516 4.3639 16.0349 4.24387 16.56 4.25C17.4803 4.25 18.3629 4.61559 19.0137 5.26634C19.6644 5.91709 20.03 6.7997 20.03 7.72C20.03 8.6403 19.6644 9.52291 19.0137 10.1737C18.3629 10.8244 17.4803 11.19 16.56 11.19C15.6614 11.1944 14.7973 10.8444 14.155 10.216L14.15 10.219ZM22.75 16.683V19C22.75 19.1989 22.671 19.3897 22.5303 19.5303C22.3897 19.671 22.1989 19.75 22 19.75C21.8011 19.75 21.6103 19.671 21.4697 19.5303C21.329 19.3897 21.25 19.1989 21.25 19V16.68C21.2843 16.2585 21.2267 15.8346 21.0811 15.4375C20.9356 15.0405 20.7056 14.6797 20.4071 14.3802C20.1085 14.0807 19.7485 13.8496 19.3519 13.7028C18.9553 13.556 18.5316 13.4971 18.11 13.53H16.6C16.4011 13.53 16.2103 13.451 16.0697 13.3103C15.929 13.1697 15.85 12.9789 15.85 12.78C15.85 12.5811 15.929 12.3903 16.0697 12.2497C16.2103 12.109 16.4011 12.03 16.6 12.03H18.11C18.7307 11.9892 19.353 12.0816 19.9352 12.3011C20.5173 12.5205 21.0457 12.8618 21.4851 13.3021C21.9245 13.7425 22.2647 14.2717 22.4829 14.8543C22.701 15.4369 22.7921 16.0593 22.75 16.68V16.683Z" fill="#F7F7F0"/>
</svg>
