<svg width="48" height="48" viewBox="0 0 48 48" fill="none" xmlns="http://www.w3.org/2000/svg">
<rect width="48" height="48" fill="#F7F7F0"/>
<path d="M24 10.5C21.33 10.5 18.7199 11.2918 16.4998 12.7752C14.2797 14.2586 12.5494 16.367 11.5276 18.8338C10.5058 21.3006 10.2385 24.015 10.7594 26.6337C11.2803 29.2525 12.5661 31.6579 14.4541 33.5459C16.3421 35.434 18.7475 36.7197 21.3663 37.2406C23.985 37.7615 26.6994 37.4942 29.1662 36.4724C31.633 35.4506 33.7414 33.7203 35.2248 31.5002C36.7082 29.2801 37.5 26.67 37.5 24C37.496 20.4208 36.0724 16.9893 33.5416 14.4584C31.0107 11.9276 27.5792 10.504 24 10.5ZM24 34.5C21.9233 34.5 19.8932 33.8842 18.1665 32.7304C16.4398 31.5767 15.094 29.9368 14.2993 28.0182C13.5046 26.0996 13.2966 23.9884 13.7018 21.9516C14.1069 19.9148 15.1069 18.0438 16.5754 16.5754C18.0438 15.1069 19.9148 14.1069 21.9516 13.7018C23.9884 13.2966 26.0996 13.5045 28.0182 14.2993C29.9368 15.094 31.5767 16.4398 32.7304 18.1665C33.8842 19.8932 34.5 21.9233 34.5 24C34.497 26.7839 33.3898 29.4528 31.4213 31.4213C29.4529 33.3898 26.7839 34.497 24 34.5ZM32.5 24C32.5 24.3978 32.342 24.7794 32.0607 25.0607C31.7794 25.342 31.3978 25.5 31 25.5H24C23.6022 25.5 23.2206 25.342 22.9393 25.0607C22.658 24.7794 22.5 24.3978 22.5 24V17C22.5 16.6022 22.658 16.2206 22.9393 15.9393C23.2206 15.658 23.6022 15.5 24 15.5C24.3978 15.5 24.7794 15.658 25.0607 15.9393C25.342 16.2206 25.5 16.6022 25.5 17V22.5H31C31.3978 22.5 31.7794 22.658 32.0607 22.9393C32.342 23.2206 32.5 23.6022 32.5 24Z" fill="#8C39FC"/>
</svg>
