<svg width="32" height="32" viewBox="0 0 32 32" fill="none" xmlns="http://www.w3.org/2000/svg">
<g clip-path="url(#clip0_1_13310)">
<path d="M6.98633 17.3073V28.2662C6.98633 28.9195 7.51423 29.4471 8.16718 29.4471C8.81901 29.4471 9.34803 28.9195 9.34803 28.2662V17.3073C9.34803 16.6553 8.81901 16.1265 8.16718 16.1265C7.51423 16.1265 6.98633 16.6547 6.98633 17.3073Z" fill="white"/>
<path d="M3.27988 29.4607H5.87998V16.4496C5.88711 16.3873 5.89846 16.325 5.89846 16.2611C5.89846 10.6478 10.4292 6.08161 15.9976 6.08161C21.5652 6.08161 26.096 10.6478 26.096 16.2611C26.096 16.3469 26.1086 16.4301 26.1214 16.5131V29.4607H28.7218C30.5316 29.4607 32.0001 27.9419 32.0001 26.068V19.2829C32.0001 17.7376 30.9992 16.4357 29.6327 16.026C29.507 8.56892 23.4409 2.53906 15.9981 2.53906C8.55335 2.53906 2.4863 8.56947 2.36181 16.0289C0.997237 16.4391 0 17.7399 0 19.284V26.068C0 27.9408 1.46835 29.4607 3.27988 29.4607Z" fill="white"/>
<path d="M22.6543 17.3073V28.2662C22.6543 28.9195 23.183 29.4471 23.835 29.4471C24.4871 29.4471 25.0158 28.9195 25.0158 28.2662V17.3073C25.0158 16.6553 24.4871 16.1265 23.835 16.1265C23.1818 16.1265 22.6543 16.6547 22.6543 17.3073Z" fill="white"/>
</g>
<defs>
<clipPath id="clip0_1_13310">
<rect width="32" height="32" fill="white"/>
</clipPath>
</defs>
</svg>
