<svg width="16" height="18" viewBox="0 0 16 18" fill="none" xmlns="http://www.w3.org/2000/svg">
<path d="M8 0C5.87901 0.00244312 3.84559 0.854189 2.34582 2.36838C0.846051 3.88257 0.00241984 5.93556 0 8.07695C0 12.8013 4.29714 15.6647 7.136 17.5597L7.61966 17.8837C7.73229 17.9595 7.86463 18 8 18C8.13537 18 8.26771 17.9595 8.38034 17.8837L8.864 17.5597C11.7056 15.6647 16 12.8013 16 8.07695C15.9976 5.93556 15.1539 3.88257 13.6542 2.36838C12.1544 0.854189 10.121 0.00244312 8 0ZM8.1088 16.404L8 16.477L7.8912 16.404C5.14011 14.5699 1.37143 12.0563 1.37143 8.07695C1.37143 6.30203 2.06979 4.59981 3.31289 3.34476C4.55599 2.0897 6.24199 1.38462 8 1.38462C9.75801 1.38462 11.444 2.0897 12.6871 3.34476C13.9302 4.59981 14.6286 6.30203 14.6286 8.07695C14.6286 12.0563 10.8599 14.5699 8.1088 16.404ZM8 5.07694C7.41231 5.07694 6.83781 5.25288 6.34916 5.58253C5.86051 5.91218 5.47966 6.38071 5.25476 6.92889C5.02986 7.47707 4.97101 8.08027 5.08567 8.66222C5.20032 9.24416 5.48332 9.77871 5.89888 10.1983C6.31445 10.6178 6.8439 10.9036 7.4203 11.0193C7.9967 11.1351 8.59416 11.0757 9.13712 10.8486C9.68007 10.6215 10.1441 10.237 10.4707 9.74366C10.7972 9.25031 10.9714 8.67029 10.9714 8.07695C10.9705 7.28159 10.6571 6.5191 10.1 5.9567C9.54301 5.3943 8.78778 5.07791 8 5.07694ZM8 9.69234C7.68355 9.69234 7.37421 9.59759 7.11109 9.42009C6.84797 9.24259 6.64289 8.9903 6.52179 8.69513C6.40069 8.39995 6.36901 8.07515 6.43074 7.7618C6.49248 7.44844 6.64487 7.16061 6.86863 6.93469C7.09239 6.70878 7.37749 6.55493 7.68786 6.4926C7.99823 6.43027 8.31993 6.46226 8.61229 6.58452C8.90466 6.70679 9.15454 6.91383 9.33035 7.17948C9.50616 7.44513 9.6 7.75745 9.6 8.07695C9.59952 8.50522 9.43079 8.91582 9.13084 9.21866C8.83088 9.5215 8.4242 9.69185 8 9.69234Z" fill="white"/>
</svg>
