<svg width="110" height="44" viewBox="0 0 110 44" fill="none" xmlns="http://www.w3.org/2000/svg">
<g clip-path="url(#clip0_52_85)">
<path d="M38.4539 43.2688C38.1816 42.9406 38.0412 42.5266 38.0591 42.1045C38.0628 41.5465 38.1797 40.9947 38.4029 40.4811C38.6596 39.8927 38.9847 39.335 39.3718 38.8191C39.792 38.2482 40.3176 37.6074 40.9486 36.8969C41.2233 36.6339 41.4605 36.336 41.654 36.0113C41.6543 35.9744 41.6399 35.9389 41.6139 35.9122C41.589 35.8877 41.5552 35.8737 41.5199 35.873C41.153 36.0421 40.8207 36.2748 40.5389 36.5599C39.8008 37.2007 39.0959 37.8772 38.4269 38.5868C37.5686 39.4776 36.6415 40.5376 35.6457 41.7669C35.5899 41.8326 35.4115 42.0554 35.1105 42.4353C34.9166 42.6956 34.7061 42.9437 34.4802 43.1781C34.3988 43.2718 34.285 43.3331 34.1605 43.3505C34.0052 43.3505 33.8689 43.1949 33.7543 42.8865C33.6379 42.5694 33.5797 42.2347 33.5824 41.8979C33.591 41.6539 33.6649 41.4163 33.7967 41.2088C33.9382 40.9636 34.251 40.522 34.7278 39.8855C35.2045 39.249 35.6016 38.71 35.9156 38.2739C36.2295 37.8379 36.5728 37.3061 36.9469 36.683C37.2094 36.2509 37.4053 35.9061 37.5296 35.6497C37.6436 35.4397 37.7084 35.2076 37.7193 34.9701C37.7193 34.8022 37.6695 34.7154 37.5675 34.7154C37.3547 34.7154 36.9549 34.9925 36.3682 35.5467C35.5855 36.3214 34.8581 37.1475 34.1909 38.0192C33.3268 39.1123 32.4244 40.3783 31.4835 41.8173C31.1753 42.3077 30.9568 42.6383 30.828 42.8092C30.7831 42.8818 30.7207 42.9427 30.6464 42.9867C30.572 43.0307 30.4879 43.0564 30.4012 43.0617C30.2052 43.0617 30.0219 42.8596 29.8511 42.4515C29.7036 42.1404 29.6166 41.8052 29.5944 41.463C29.6003 41.3651 29.6358 41.2712 29.6964 41.1931C30.434 40.2311 31.0406 39.4138 31.5162 38.7413C31.9918 38.0689 32.4146 37.4305 32.7848 36.8263C33.0869 36.3469 33.3564 35.8486 33.5915 35.3345C33.7324 35.0447 33.8175 34.732 33.8425 34.412C33.8425 34.1762 33.7334 34.0583 33.5153 34.0583C33.1893 34.1073 32.8772 34.2216 32.5986 34.3941C32.1677 34.618 31.623 34.9244 30.9644 35.3133C30.3059 35.7021 29.7789 35.9984 29.3836 36.2022C29.1125 36.3657 28.8087 36.4704 28.4926 36.5089C28.3085 36.5089 28.2166 36.4078 28.217 36.2056C28.2366 35.9395 28.2749 35.675 28.3316 35.414C28.3768 35.1149 28.4584 34.8222 28.5745 34.5419C28.8163 34.1986 29.1225 33.9032 29.477 33.6714C29.7242 33.4642 29.9931 33.283 30.2791 33.1307C30.3255 33.1307 30.3485 33.1514 30.3485 33.1867C30.3485 33.2091 30.3255 33.2427 30.2791 33.2858C30.1 33.4232 29.9292 33.5707 29.7675 33.7274C29.6621 33.8311 29.5897 33.9623 29.5589 34.1053C30.4356 33.5763 31.3544 33.1169 32.3063 32.7316C32.8389 32.4891 33.4072 32.3299 33.9903 32.2597C34.0846 32.2709 34.1745 32.3048 34.252 32.3583C34.3295 32.4119 34.3922 32.4834 34.4344 32.5665C34.5826 32.789 34.7023 33.0285 34.7908 33.2796C34.8617 33.4472 34.9113 33.6225 34.9386 33.8019C34.9256 34.1407 34.8515 34.4746 34.7197 34.7882C34.5742 35.1681 34.3769 35.6098 34.1278 36.1132C33.8786 36.617 33.5703 37.2439 33.2008 38.0002C33.4924 37.6335 33.768 37.2943 34.0322 36.982C34.2963 36.6696 34.5553 36.3662 34.816 36.0723C35.0767 35.7784 35.3409 35.479 35.609 35.1795C35.9856 34.7569 36.3956 34.3638 36.8352 34.004C37.2356 33.6673 37.6609 33.3601 38.1078 33.0848C38.3458 32.9111 38.6194 32.7899 38.91 32.7293C39.0172 32.7355 39.1212 32.7674 39.2128 32.8223C39.3044 32.8772 39.3806 32.9533 39.4348 33.0439C39.5829 33.2402 39.6631 33.4775 39.664 33.7213C39.6124 34.0401 39.5048 34.3478 39.346 34.6309C39.1332 35.0787 38.8221 35.6527 38.4126 36.3528C38.0031 37.0529 37.4636 37.955 36.7939 39.0593C37.4319 38.3965 38.0948 37.7158 38.7828 37.0172C39.4707 36.3186 39.983 35.8075 40.3195 35.484C40.5849 35.2223 40.8651 34.9754 41.1589 34.7445C41.4672 34.5161 41.7762 34.2691 42.086 34.0034C42.3966 33.7375 42.6418 33.5298 42.82 33.3764C42.9691 33.2454 43.1293 33.1271 43.299 33.0227C43.4145 32.9492 43.5481 32.9073 43.6858 32.9012C43.8319 32.9012 44.0135 33.0641 44.2358 33.3932C44.3883 33.5798 44.5009 33.7943 44.567 34.0241C44.5487 34.178 44.4795 34.3219 44.3699 34.4339C44.2381 34.5928 43.9654 34.8867 43.5494 35.3194C42.8258 36.0721 42.164 36.8794 41.5703 37.7337C41.0745 38.4328 40.6485 39.1768 40.2983 39.9555C40.0544 40.4538 39.9075 40.9922 39.8651 41.543C39.8484 41.7282 39.8978 41.9133 40.0049 42.067C40.059 42.1249 40.126 42.1699 40.2007 42.1984C40.2754 42.227 40.3559 42.2383 40.4358 42.2315C40.6078 42.2329 40.7782 42.1991 40.936 42.1324C41.1145 42.0537 41.2857 41.9601 41.4477 41.8526C41.6356 41.7328 41.8138 41.6186 41.9806 41.5083C42.2161 41.3717 42.4464 41.2284 42.6744 41.0706C42.9025 40.9127 43.0755 40.7907 43.2033 40.7017L43.3574 40.5925C43.412 40.2626 43.5273 39.9451 43.6978 39.6554C43.9458 39.2171 44.2566 38.8156 44.6209 38.4631C44.9783 38.1091 45.387 37.8083 45.8339 37.5703C46.1995 37.3603 46.6132 37.2431 47.0371 37.2294C47.2507 37.2195 47.4635 37.26 47.6577 37.3475C47.7248 37.3758 47.782 37.4227 47.8222 37.4824C47.8624 37.5421 47.8839 37.6119 47.884 37.6834C47.8667 37.8271 47.7981 37.9603 47.6903 38.0595C47.8575 38.0799 48.0122 38.1567 48.1275 38.2767C48.2214 38.4462 48.2613 38.6391 48.2421 38.8309C48.2291 39.1687 48.1658 39.5028 48.0542 39.8228C47.9304 40.2165 47.7572 40.5937 47.5385 40.9457L47.6898 41.0935H47.8164C47.9147 41.0929 48.0114 41.0691 48.0983 41.0241C48.1844 40.9811 48.2669 40.9317 48.3453 40.8763C48.4175 40.8248 48.5745 40.7084 48.814 40.5354C49.0296 40.2868 49.2288 40.0251 49.4104 39.7517C49.264 39.7092 49.1304 39.6323 49.0214 39.5278C48.9313 39.417 48.8875 39.277 48.8988 39.136C48.9209 38.8712 49.0069 38.6153 49.1497 38.3892C49.3219 38.0844 49.531 37.801 49.7726 37.5451C49.9545 37.3291 50.1838 37.1558 50.4435 37.0379C50.5133 37.0018 50.5909 36.9826 50.6698 36.982C50.7844 36.982 50.8383 37.0346 50.8383 37.1376C50.792 37.3415 50.7033 37.534 50.5776 37.7029C51.2997 37.5769 52.0283 37.4894 52.7601 37.441C52.8428 37.4352 52.9258 37.4466 53.0036 37.4746C53.1238 37.5561 53.208 37.6791 53.2391 37.8188C53.2996 37.993 53.3307 38.1756 53.3314 38.3596C53.3224 38.4968 53.2678 38.6275 53.1761 38.7318C53.0093 38.9363 52.8314 39.132 52.6432 39.3179C52.3514 39.6248 52.1011 39.967 51.8983 40.3361C51.7363 40.5868 51.633 40.8693 51.5958 41.1635C51.5958 41.4199 51.7585 41.5492 52.0828 41.5492C52.4071 41.5492 52.9675 41.239 53.7548 40.6183C53.8645 39.7909 54.129 38.9904 54.5352 38.2566C55.0729 37.2303 55.7245 36.2648 56.4782 35.3776C57.1442 34.5763 57.8814 33.8342 58.6813 33.1598C59.3926 32.5758 59.8735 32.2838 60.1241 32.2838C60.3659 32.2838 60.4868 32.4448 60.4868 32.7668C60.4868 34.1988 58.6064 36.697 54.8457 40.2617C54.8343 40.3608 54.8286 40.5539 54.8286 40.8438C54.8286 41.598 55.0356 41.9755 55.4497 41.9763C55.6307 41.9686 55.8036 41.9007 55.9396 41.7837C56.2095 41.5558 56.4637 41.3106 56.7005 41.0498C56.5921 40.8449 56.5237 40.6221 56.4988 40.3927C56.5187 40.0373 56.6506 39.6967 56.8764 39.4175C57.118 39.0778 57.4074 38.7729 57.7359 38.5118C57.9279 38.3222 58.1711 38.1898 58.4372 38.1301C58.6664 38.1301 58.781 38.2913 58.781 38.6148C58.7689 38.919 58.7022 39.2188 58.5839 39.5004C58.4236 39.9076 58.2321 40.3025 58.0109 40.6815C58.1072 40.7582 58.1828 40.8125 58.2372 40.8494C58.3145 40.8908 58.402 40.9101 58.4899 40.9054C58.7993 40.8837 59.096 40.7765 59.3454 40.5964C59.3561 40.5173 59.3704 40.4386 59.3883 40.3608C59.4233 40.1953 59.4765 40.0341 59.5471 39.8799C59.6086 39.7545 59.7232 39.558 59.8909 39.2905C60.6862 38.0814 61.4137 37.4774 62.0733 37.4785C62.4171 37.4785 62.589 37.6055 62.589 37.8642C62.5437 38.1585 62.4304 38.4389 62.2578 38.6842C62.0972 38.9737 61.8982 39.2411 61.666 39.4797C61.3316 39.7827 61.0138 40.1026 60.7137 40.438C60.5675 40.6112 60.4888 40.8293 60.4913 41.0538C60.4894 41.147 60.5086 41.2396 60.5478 41.3247C60.5869 41.4098 60.645 41.4853 60.7177 41.5458C60.8806 41.6809 61.0897 41.7511 61.3033 41.7423C61.614 41.728 61.9149 41.6313 62.1736 41.4624C62.5506 41.2253 62.9107 40.9635 63.2514 40.6787C63.2766 40.525 63.3102 40.3654 63.3522 40.2001C63.5471 39.6104 63.836 39.0544 64.2083 38.5527C65.1873 37.1189 66.0254 35.9471 66.7225 35.0373C67.2588 34.3169 67.8375 33.6275 68.4558 32.9728C68.9142 32.5049 69.2221 32.2765 69.3794 32.2877C69.5432 32.2946 69.7039 32.3326 69.8527 32.3996C69.9731 32.4595 70.0321 32.5289 70.0321 32.6056C69.9908 32.8493 69.8928 33.0805 69.7456 33.2813C69.5525 33.5959 69.223 34.0862 68.7514 34.7524C68.2419 35.4581 67.8811 35.954 67.6691 36.2403C67.4565 36.5285 67.1402 36.9349 66.7168 37.4622C66.2934 37.9896 65.9083 38.4598 65.5576 38.8734C65.207 39.2871 64.8128 39.7327 64.3624 40.2135V41.1982C65.1115 40.382 65.7609 39.715 66.3105 39.197C66.746 38.773 67.2121 38.3802 67.7052 38.0215C67.9434 37.8179 68.2334 37.6808 68.5446 37.6246C68.641 37.6323 68.734 37.6627 68.8157 37.7132C68.8974 37.7637 68.9654 37.8328 69.0139 37.9145C69.134 38.0494 69.21 38.2163 69.2322 38.3937C69.2246 38.4687 69.1956 38.54 69.1485 38.5997C68.7474 39.0694 68.4237 39.459 68.1882 39.768C67.9813 40.0287 67.7973 40.306 67.6381 40.597C67.5239 40.7881 67.4578 41.003 67.4451 41.2239C67.4451 41.4803 67.5717 41.6096 67.8221 41.6096C68.0845 41.6096 68.6594 41.2738 69.5468 40.602C69.558 40.509 69.5771 40.4171 69.604 40.3272C69.6654 40.1341 69.7651 39.9547 69.8974 39.7993C70.1128 39.5457 70.3458 39.3068 70.5947 39.0845C71.3303 38.4082 72.1645 37.8423 73.07 37.4051C73.6443 37.1025 74.2751 36.9159 74.9248 36.8566C74.9862 36.8579 75.0468 36.8712 75.103 36.8956C75.1591 36.92 75.2098 36.9551 75.2519 36.9988C75.3524 37.0952 75.4336 37.2091 75.4914 37.3346C75.5383 37.4218 75.5682 37.5167 75.5797 37.6145C75.5821 37.6579 75.5722 37.7011 75.5512 37.7394C75.5302 37.7777 75.4988 37.8096 75.4605 37.8317C75.33 37.9008 75.1927 37.9571 75.0508 37.9996C75.0886 38.0858 75.1408 38.1978 75.2021 38.3355C75.2634 38.4732 75.3109 38.5846 75.3442 38.6714C75.375 38.7423 75.3919 38.8182 75.394 38.8953C75.3216 39.1685 75.1822 39.4203 74.9878 39.6291C74.7887 39.8873 74.5977 40.1513 74.4148 40.4207C74.3011 40.609 74.2447 40.8251 74.2521 41.0437C74.2521 41.4478 74.4417 41.6499 74.8251 41.6499C75.1933 41.6499 75.759 41.3314 76.5222 40.6944C76.5344 40.5725 76.5628 40.4526 76.6065 40.3378C76.7238 40.0865 76.863 39.8455 77.0224 39.6174C77.311 39.1608 77.646 38.7337 78.0223 38.3428C78.2244 38.1093 78.5127 37.9632 78.8245 37.9364C78.9743 37.9297 79.1234 37.9605 79.2577 38.0259C79.3094 38.0524 79.3523 38.0929 79.3811 38.1425C79.41 38.1921 79.4236 38.2488 79.4204 38.3058C79.4186 38.3664 79.4015 38.4257 79.3705 38.4782C79.338 38.5361 79.2996 38.5907 79.2559 38.6411C79.1701 38.7392 79.0821 38.8353 78.9918 38.9294C78.1067 39.8859 77.6648 40.5061 77.6659 40.7901C77.6659 40.9491 77.718 41.028 77.8252 41.028C77.8917 41.028 78.0223 40.9233 78.2142 40.7134C78.4062 40.5035 78.6566 40.227 78.9631 39.8844C79.3027 39.5079 79.6637 39.1504 80.0444 38.8135C80.4904 38.4215 80.9662 38.0629 81.4676 37.741C81.6785 37.5714 81.9353 37.4654 82.2068 37.4359C82.295 37.4359 82.3833 37.5574 82.4715 37.797C82.5559 38.0308 82.5993 38.2768 82.5999 38.5247C82.5999 38.6445 82.4812 38.8281 82.24 39.075C81.2553 40.1456 80.7629 40.892 80.7629 41.3141C80.7629 41.548 80.8603 41.6662 81.0562 41.6662C81.287 41.641 81.5063 41.5542 81.69 41.4154C81.9507 41.2474 82.3563 40.953 82.9121 40.5265V41.0918C82.1168 41.8572 81.507 42.4093 81.0826 42.7482C80.8002 43.0226 80.435 43.2011 80.0409 43.2576C79.5825 43.2576 79.3533 42.9624 79.3533 42.372C79.3534 42.1966 79.3817 42.0223 79.437 41.8554C79.4977 41.6723 79.5754 41.4951 79.6691 41.3258C79.7647 41.1422 79.916 40.878 80.1171 40.5421C80.3182 40.2063 80.5503 39.8144 80.8127 39.3817C80.3672 39.6364 79.9629 39.9542 79.6129 40.3249C79.3289 40.5877 79.0627 40.8681 78.8159 41.1646C78.597 41.4284 78.3632 41.7236 78.1146 42.0502C77.9458 42.2787 77.7635 42.4974 77.5685 42.7051C77.5249 42.7545 77.4716 42.7948 77.4118 42.8236C77.3519 42.8525 77.2868 42.8693 77.2201 42.873C77.0417 42.873 76.8769 42.6896 76.7256 42.3228C76.5892 41.9782 76.5142 41.6134 76.5039 41.2441C75.1669 42.6682 74.2057 43.3807 73.6201 43.3819C73.5306 43.3896 73.4406 43.3743 73.359 43.3376C73.2774 43.3009 73.207 43.244 73.1548 43.1725C73.0505 42.9826 73.0026 42.7679 73.0167 42.5528C73.0679 41.9054 73.2292 41.2709 73.494 40.6754C72.6777 41.5605 72.0709 42.1907 71.6737 42.5657C71.4247 42.8608 71.076 43.0594 70.6904 43.1255C70.5678 43.1255 70.4148 43.0208 70.2286 42.8131C70.0239 42.5704 69.8586 42.2984 69.7387 42.0065C69.6214 41.7355 69.5509 41.4474 69.5301 41.154C69.0763 41.6036 68.6815 41.9752 68.3458 42.2685C68.0562 42.5277 67.7448 42.7625 67.4147 42.9704C67.2145 43.1062 66.9814 43.1882 66.7386 43.2083C66.3014 43.2083 66.0831 42.9559 66.0831 42.4538C66.1073 41.9602 66.2469 41.4786 66.491 41.0459C66.8354 40.3926 67.2266 39.7639 67.6616 39.1645C67.4096 39.3008 67.1705 39.4587 66.9471 39.6364C66.7331 39.8067 66.5337 39.9939 66.3512 40.1962C66.1793 40.3887 66.0332 40.5556 65.9163 40.6921C65.5519 41.0907 65.2018 41.4993 64.8661 41.9181C64.5309 42.3356 64.3034 42.6071 64.1859 42.7325C64.1467 42.7852 64.0965 42.8292 64.0388 42.8618C63.9811 42.8944 63.917 42.9148 63.8507 42.9217C63.4233 42.9217 63.2048 42.42 63.1952 41.4165C62.8122 41.8943 62.3729 42.3264 61.8866 42.704C61.5514 42.9966 61.1304 43.1788 60.6833 43.2246C60.4593 43.2247 60.2408 43.1572 60.0577 43.0312C59.8746 42.9052 59.7358 42.727 59.6605 42.5209C59.4572 42.0896 59.3444 41.6229 59.3288 41.1484C58.9425 41.4245 58.4897 41.598 58.0143 41.6522C57.8157 41.6498 57.6185 41.6195 57.4287 41.562C57.0444 42.0601 56.6098 42.5192 56.1315 42.9324C55.8318 43.1971 55.4466 43.3508 55.0429 43.3668C54.8339 43.3641 54.6304 43.3012 54.458 43.186C54.2855 43.0708 54.1517 42.9083 54.0734 42.7191C53.8472 42.254 53.7316 41.745 53.7353 41.2301C53.3308 41.6406 52.992 41.9697 52.7188 42.2175C52.4588 42.4583 52.1782 42.6768 51.88 42.8708C51.6785 43.0126 51.4402 43.0962 51.1924 43.1121C51.0752 43.1114 50.96 43.0822 50.8573 43.0269C50.7546 42.9717 50.6677 42.8922 50.6045 42.7958C50.4298 42.523 50.3474 42.2034 50.369 41.8822C50.378 41.6055 50.441 41.3331 50.5547 41.0795C50.7003 40.7356 50.8813 40.407 51.095 40.0988C51.3426 39.7335 51.6104 39.3816 51.8972 39.0447C51.7407 39.0783 51.5643 39.1119 51.3683 39.1477L50.7461 39.2597C50.5278 39.2989 50.3604 39.3291 50.2436 39.3492C49.8724 40.0583 49.3582 40.6866 48.732 41.1965V41.1864C48.4932 41.406 48.2281 41.5966 47.9425 41.754C47.6367 41.876 47.3046 41.921 46.9764 41.885C46.2506 42.7273 45.61 43.1479 45.0546 43.1468C44.7418 43.1465 44.4389 43.0391 44.1986 42.8434C43.9266 42.6212 43.7147 42.337 43.5815 42.016C43.4703 41.7588 43.3994 41.4867 43.3712 41.2088C42.893 41.6443 42.4823 41.9988 42.1393 42.2724C41.7827 42.5586 41.4111 42.8266 41.026 43.0751C40.7361 43.2706 40.4293 43.441 40.1092 43.5845C39.9127 43.6748 39.6999 43.7263 39.4829 43.7362C39.2861 43.7413 39.0908 43.7017 38.9122 43.6206C38.7337 43.5395 38.5768 43.4191 38.4539 43.2688ZM45.8992 39.1153C45.5985 39.3131 45.3175 39.538 45.0598 39.787C44.8542 39.9779 44.6962 40.2123 44.598 40.4722C44.4581 41.0842 44.3884 41.4148 44.3888 41.4641C44.3888 41.8253 44.6463 42.0056 45.1612 42.0048C45.6106 41.9082 46.0266 41.6994 46.3685 41.3986C46.2781 41.1626 46.23 40.9132 46.2264 40.6614C46.2298 40.2996 46.3039 39.9419 46.4447 39.6073C46.6264 39.1808 46.8423 38.769 47.0904 38.3758C46.6275 38.6473 46.2287 38.8941 45.8992 39.1153ZM71.4863 39.8323C71.2297 39.9787 71.0121 40.1821 70.851 40.426C70.6899 40.67 70.59 40.9475 70.5592 41.2362C70.5533 41.3849 70.5848 41.5327 70.6509 41.6667C70.6717 41.7153 70.7065 41.7571 70.751 41.7868C70.7955 41.8166 70.8479 41.8332 70.9019 41.8346C71.0176 41.8187 71.1289 41.7807 71.2296 41.7227C71.8358 41.3686 72.38 40.9219 72.8414 40.3994C73.3277 39.8545 73.9127 39.1153 74.5964 38.1816C73.5073 38.6317 72.4657 39.1849 71.4863 39.8323ZM58.6607 34C58.1777 34.51 57.7334 35.0536 57.3313 35.6267C56.6438 36.5776 56.1456 37.2939 55.837 37.7757C55.527 38.2614 55.284 38.7851 55.1145 39.333C55.4292 39.0644 55.7227 38.7729 55.9923 38.4609C56.2849 38.125 56.7139 37.6097 57.2792 36.9148C57.8235 36.2483 58.2502 35.6917 58.5592 35.245C58.8154 34.8889 59.0496 34.5182 59.2606 34.1349C59.378 33.9494 59.458 33.7436 59.4961 33.5287C59.4961 33.4464 59.4731 33.405 59.429 33.405C59.3068 33.4046 59.0509 33.6028 58.6612 33.9995L58.6607 34ZM18.5026 43.1361C18.3934 42.909 18.3439 42.6589 18.3588 42.4084C18.3634 41.9323 18.4193 41.458 18.5255 40.9933C18.1159 41.4484 17.7497 41.833 17.4237 42.1537C17.1749 42.4066 16.9115 42.6452 16.6347 42.8686C16.5188 42.9804 16.3756 43.0615 16.2187 43.1042C16.0961 43.1042 15.9593 43.0087 15.8085 42.8176C15.6405 42.5951 15.5092 42.3482 15.4194 42.086C15.315 41.7961 15.2613 41.491 15.2607 41.1836C15.2929 40.6716 15.5285 40.1922 15.9173 39.8474C16.3533 39.4005 16.8581 39.0228 17.4134 38.7279C17.7948 38.4907 18.2253 38.3393 18.6739 38.2846C18.8119 38.2994 18.9443 38.3456 19.0607 38.4193C19.1771 38.4931 19.2742 38.5924 19.3443 38.7094C19.7045 37.9757 20.0462 37.3238 20.3694 36.7536C20.6111 36.3125 20.8831 35.888 21.1836 35.4829C21.4042 35.2058 21.5595 35.0675 21.6529 35.0675C21.7088 35.0693 21.7636 35.0833 21.8132 35.1086C21.8628 35.1339 21.9059 35.1698 21.9394 35.2136C22.0226 35.3049 22.0691 35.4227 22.07 35.545C21.9878 35.9855 21.8057 36.4025 21.5371 36.7653C21.183 37.3419 20.8331 37.9034 20.4874 38.4497C20.1574 38.9696 19.861 39.5092 19.5999 40.0652C19.3703 40.5249 19.2437 41.0272 19.2286 41.5385C19.2286 41.9483 19.3644 42.1543 19.6348 42.1543C19.8635 42.1273 20.0785 42.0332 20.2514 41.8845C20.602 41.6151 20.9382 41.3283 21.2587 41.0252C21.2673 40.9692 21.277 40.9133 21.2902 40.8623C21.334 40.6939 21.4011 40.5322 21.4896 40.3815C21.6035 40.1817 21.733 39.9908 21.8769 39.8105C22.0381 39.6064 22.2354 39.3742 22.4688 39.1141L22.8212 38.7117C22.8962 38.6177 22.9917 38.5412 23.1008 38.4878C23.2439 38.4419 23.3946 38.4229 23.5449 38.4318C23.6894 38.4301 23.8334 38.449 23.9723 38.4878C24.1064 38.5269 24.174 38.5661 24.174 38.6075C24.1412 38.7687 24.071 38.9203 23.9689 39.0509C23.7742 39.3328 23.5516 39.5953 23.3042 39.8346C22.9751 40.1625 22.6207 40.4653 22.2442 40.7403C22.1701 40.9383 22.1252 41.1457 22.1107 41.356C22.1107 41.5525 22.1892 41.6499 22.3399 41.6499C22.444 41.6276 22.5404 41.5792 22.6195 41.5094C22.7501 41.4176 22.9702 41.2362 23.2801 40.9704C23.5901 40.7045 23.8686 40.4666 24.1156 40.2628C24.3489 40.0521 24.5613 39.8203 24.7498 39.5704C24.9894 39.2614 25.1824 39.0313 25.332 38.8757C25.6787 38.5202 25.913 38.2896 26.0391 38.1832C26.1361 38.0875 26.2658 38.0301 26.4035 38.022C26.4477 38.0163 26.4927 38.023 26.5333 38.0412C26.5738 38.0594 26.6083 38.0885 26.6327 38.125C26.6819 38.2579 26.7014 38.3995 26.69 38.5404C26.6923 38.6188 26.6826 38.6971 26.6613 38.7727C26.6322 38.8534 26.5937 38.9305 26.5467 39.0027C26.4894 39.0962 26.3702 39.2664 26.1926 39.5177C26.015 39.7691 25.8076 40.0641 25.5623 40.4067C25.4283 40.5945 25.3131 40.7945 25.2185 41.0039C25.1386 41.1564 25.0885 41.3222 25.0707 41.4926C25.0707 41.7305 25.1664 41.8481 25.3572 41.8481C25.5556 41.8352 25.7465 41.7692 25.909 41.6572C26.2427 41.443 26.5651 41.2124 26.875 40.9664V41.4249C26.3288 41.9171 25.9258 42.2746 25.666 42.4974C25.4536 42.6829 25.2261 42.8514 24.9859 43.0012C24.824 43.1056 24.6355 43.1637 24.4416 43.1692C24.0508 43.1692 23.8537 42.9452 23.8537 42.4862C23.8696 42.2449 23.9277 42.0081 24.0256 41.7859C24.1402 41.4923 24.3291 41.0674 24.5923 40.5113C23.9158 41.3872 23.4018 42.0093 23.0504 42.3776C22.699 42.746 22.4107 42.9307 22.1858 42.9318C22.0937 42.9295 22.003 42.9093 21.9191 42.8723C21.8352 42.8352 21.7597 42.7822 21.697 42.7163C21.5364 42.5519 21.4185 42.3522 21.3532 42.1341C21.2906 41.9464 21.2521 41.7518 21.2386 41.5548C20.2615 42.7725 19.5059 43.3817 18.9719 43.3824C18.8779 43.3886 18.784 43.3688 18.7011 43.3251C18.6181 43.2814 18.5495 43.2157 18.5032 43.1356L18.5026 43.1361ZM17.5858 39.9824C17.2272 40.1577 16.8871 40.3671 16.5705 40.6076C16.4376 40.7538 16.344 40.93 16.2984 41.1204C16.2318 41.303 16.1917 41.4939 16.1792 41.6874C16.1759 41.7575 16.2008 41.826 16.2485 41.8783C16.2704 41.9029 16.2976 41.9225 16.3281 41.9357C16.3586 41.9489 16.3916 41.9555 16.425 41.955C16.5057 41.9494 16.583 41.9208 16.6473 41.8727C16.7875 41.7733 16.9214 41.6659 17.0484 41.5508C17.2323 41.3919 17.3526 41.2889 17.4088 41.2441C17.489 41.1747 17.6649 41.0286 17.9377 40.8024C18.2104 40.5763 18.4087 40.4016 18.5353 40.2746C18.6616 40.1462 18.7699 40.002 18.8573 39.8458C18.9479 39.6824 19.0119 39.5062 19.047 39.3235C18.5404 39.5008 18.0507 39.721 17.5836 39.9818L17.5858 39.9824ZM62.4246 36.7256C62.3643 36.6789 62.3158 36.6193 62.2829 36.5513C62.25 36.4833 62.2336 36.4089 62.2349 36.3337C62.2582 36.0354 62.3821 35.7531 62.5873 35.531C62.6656 35.4071 62.7722 35.3026 62.8987 35.2257C63.0253 35.1488 63.1683 35.1015 63.3167 35.0877C63.4714 35.0827 63.622 35.1372 63.7361 35.2394C63.7947 35.2963 63.84 35.3648 63.8691 35.4404C63.8981 35.5159 63.9103 35.5966 63.9046 35.6771C63.8822 35.9674 63.7612 36.242 63.5608 36.4574C63.4801 36.5793 63.3714 36.6811 63.2434 36.7549C63.1154 36.8286 62.9716 36.8723 62.8234 36.8823C62.6744 36.88 62.5316 36.824 62.4223 36.725L62.4246 36.7256ZM50.5192 29.2179C50.302 28.9667 50.1915 28.6438 50.2103 28.3155C50.2678 27.5454 50.4683 26.792 50.8022 26.0921C51.3321 24.893 51.9447 23.7305 52.6357 22.6125C53.4616 21.2318 54.5006 19.6707 55.7528 17.9295C57.0049 16.1882 58.415 14.3488 59.9831 12.4112C58.917 12.2714 57.842 12.2063 56.7664 12.2164C55.1682 12.2329 53.5747 12.389 52.0049 12.6827C50.459 12.9449 48.9319 13.3037 47.4331 13.7569C46.1343 14.1629 45.4849 14.4615 45.4849 14.6525C45.4821 14.681 45.4879 14.7096 45.5015 14.7349C45.5152 14.7601 45.5361 14.7809 45.5617 14.7947C45.6427 14.8277 45.7286 14.8479 45.8161 14.8546C45.9347 14.8697 46.0866 14.8882 46.2699 14.9072C47.4697 15.0681 48.0702 15.2491 48.0714 15.4502C48.0714 15.5493 47.8089 15.598 47.2858 15.5924C46.7627 15.5868 46.1324 15.5851 45.395 15.5851C44.9712 15.5949 44.5472 15.5724 44.127 15.5179C43.924 15.5036 43.7351 15.4115 43.6015 15.2616C43.5024 15.085 43.4573 14.8843 43.4715 14.6833C43.4979 14.3098 43.5497 13.9384 43.6268 13.5716C43.7617 12.6723 44.0663 11.8053 44.5252 11.0146C44.9824 10.3304 45.6278 9.7862 46.3874 9.44438C47.4856 8.9623 48.6487 8.63583 49.8413 8.47485C51.8574 8.10671 53.901 7.90077 55.9516 7.8591C56.8925 7.84513 57.8334 7.89263 58.7678 8.00128C59.2943 8.0502 59.8077 8.19027 60.2839 8.41496C60.5365 8.53219 60.7497 8.71721 60.8987 8.94842C61.0314 9.2448 61.1462 9.54854 61.2425 9.85806L61.7198 11.2413C61.7485 11.3314 61.7771 11.4042 61.7966 11.4585C61.8179 11.5154 61.8359 11.5736 61.8505 11.6325C61.8648 11.6863 61.8725 11.7416 61.8734 11.7971C61.8793 12.1648 61.786 12.5276 61.6029 12.8489C61.3032 13.334 60.9743 13.8013 60.618 14.2484C60.1412 14.8697 59.79 15.3549 59.5643 15.7038C57.5979 18.719 55.79 21.8301 54.1479 25.0252L54.6561 25.3997C54.5237 25.6795 54.3954 25.9258 54.2705 26.1369C54.1456 26.3479 54.0006 26.6032 53.8241 26.9043C53.6476 27.2055 53.5181 27.4305 53.423 27.58C52.6529 28.8921 51.9295 29.5485 51.2526 29.5493C51.1126 29.5497 50.9742 29.5202 50.8471 29.4629C50.72 29.4055 50.6073 29.3217 50.5169 29.2173L50.5192 29.2179ZM0.541344 29.1429C0.472526 28.9695 0.441308 28.784 0.449667 28.5982C0.514749 28.0512 0.684429 27.5211 0.94988 27.0353C1.28106 26.3222 1.78357 25.3756 2.4574 24.1956C2.13932 24.0872 1.85231 23.9063 1.62027 23.6677C1.4427 23.4989 1.33622 23.2712 1.32175 23.0296C1.34236 22.767 1.42703 22.5131 1.56869 22.2892C1.71034 22.0652 1.90486 21.8776 2.13595 21.7421C2.86566 21.2715 3.68585 20.9512 4.54649 20.8005L8.04455 15.7015C7.19788 15.7379 6.35643 15.8503 5.53087 16.0374C4.76601 16.2005 4.01178 16.408 3.27218 16.6588C2.64534 16.8797 2.08515 17.0894 1.59162 17.288C1.09943 17.4844 0.74418 17.6238 0.529884 17.7072C0.471507 17.7057 0.415138 17.6861 0.368876 17.6512C0.344913 17.6372 0.324955 17.6175 0.310837 17.5939C0.29672 17.5703 0.288896 17.5436 0.288086 17.5163C0.437161 17.1378 0.616087 16.7712 0.823251 16.4197C1.17735 15.7458 1.59544 15.0246 2.07751 14.2562C4.34246 13.4014 6.73946 12.9282 9.16645 12.8568C11.5382 12.8568 13.1827 13.3497 14.0998 14.3357C14.4418 14.7028 14.7016 15.1356 14.8625 15.6064C15.0377 16.0872 15.1283 16.5934 15.1306 17.1038C15.1457 18.1628 14.9001 19.2099 14.4144 20.1568C13.9223 21.0893 13.2233 21.9027 12.3683 22.5375C11.4304 23.2359 10.3684 23.7588 9.23578 24.0797C7.95459 24.445 6.62537 24.6242 5.29079 24.6115C5.03792 24.6115 4.52109 24.5665 3.7403 24.4766L2.70894 26.3149C2.79665 26.4256 2.85174 26.5576 2.86823 26.6966C2.87513 26.9018 2.81971 27.1044 2.70894 27.2788L2.09986 28.1644C1.93339 28.4092 1.76358 28.6517 1.59047 28.8921C1.50503 29.0089 1.40472 29.1146 1.29195 29.2067C1.20284 29.2876 1.08744 29.3354 0.965924 29.3416C0.742843 29.3416 0.600552 29.2752 0.539052 29.1423L0.541344 29.1429ZM7.77983 20.5783C7.77983 20.6757 7.68013 20.7429 7.48131 20.7787L5.73772 21.1045L5.08452 22.1809C5.3756 22.1961 5.63229 22.2112 5.85862 22.2257C6.08495 22.2403 6.27461 22.2481 6.42587 22.2481C7.6094 22.2725 8.78813 22.0938 9.90846 21.7202C10.7682 21.439 11.563 20.9957 12.2479 20.4154C12.7625 19.9752 13.1886 19.4452 13.5045 18.8525C13.7302 18.448 13.863 18.0002 13.8935 17.5404C13.9012 17.3164 13.8506 17.0942 13.7465 16.8945C13.6423 16.6948 13.4881 16.5242 13.2982 16.3985C12.7803 16.0802 12.1927 15.8859 11.5833 15.8314C10.6259 15.7185 9.66197 15.6678 8.69775 15.6797C8.71488 15.78 8.72274 15.8815 8.72124 15.9831C8.65645 16.5409 8.43869 17.0712 8.09096 17.518L6.09469 20.5783L7.59705 20.4104C7.71737 20.4081 7.77754 20.463 7.77754 20.5749L7.77983 20.5783ZM74.8067 28.0709C74.6161 27.7232 74.5285 27.3304 74.554 26.9368C74.6481 25.749 74.9446 24.5849 75.4313 23.4925C73.9335 25.1173 72.8204 26.2729 72.0919 26.9592C71.3635 27.6455 70.7632 27.9886 70.2911 27.9886C70.0649 27.9886 69.7824 27.7983 69.4436 27.4176C69.067 26.9722 68.7639 26.4721 68.5452 25.9354C68.3409 25.4666 68.2144 24.9691 68.1704 24.4615C67.4065 25.2388 66.7697 25.8581 66.2601 26.3194C65.7836 26.7609 65.2686 27.1612 64.7211 27.5156C64.352 27.7763 63.915 27.93 63.4605 27.9589C63.2459 27.9578 63.035 27.9043 62.8469 27.8033C62.6587 27.7023 62.4994 27.5571 62.3833 27.3807C62.0638 26.8786 61.9131 26.2914 61.9524 25.7014C61.9694 25.1938 62.0845 24.6939 62.2916 24.228C62.5594 23.5978 62.8919 22.9958 63.2841 22.4312C63.7371 21.7614 64.2276 21.1165 64.7532 20.4994C64.4655 20.5595 64.1424 20.6225 63.7837 20.6886L62.6458 20.8907C62.2447 20.9601 61.937 21.0161 61.7227 21.0552C61.042 22.3535 60.0996 23.5039 58.9523 24.4374V23.4606C59.4116 22.9444 59.8328 22.3971 60.2129 21.8227C59.944 21.7468 59.6986 21.6072 59.4984 21.4163C59.3347 21.2117 59.2552 20.9548 59.2755 20.6959C59.3146 20.2101 59.4733 19.7408 59.7379 19.3278C60.0503 18.7672 60.4325 18.2466 60.8758 17.7778C61.2108 17.3828 61.6306 17.0646 62.1054 16.8457C62.234 16.7801 62.3764 16.7443 62.5214 16.7411C62.726 16.7411 62.8297 16.8368 62.8297 17.0277C62.7438 17.401 62.5816 17.7536 62.353 18.0644C63.6763 17.8327 65.0116 17.6721 66.353 17.5835C66.5043 17.5741 66.6561 17.5945 66.7993 17.6434C67.0178 17.7944 67.1713 18.0192 67.2302 18.2743C67.341 18.5946 67.3979 18.9303 67.3986 19.2684C67.3827 19.5201 67.2833 19.7598 67.1156 19.9514C66.8096 20.3262 66.4833 20.6848 66.1381 21.0256C65.6009 21.5865 65.1404 22.213 64.7681 22.8896C64.4707 23.3493 64.2816 23.8679 64.2146 24.4077C64.2146 24.8796 64.5114 25.1153 65.1073 25.1153C65.7032 25.1153 66.7363 24.5415 68.1888 23.394C68.209 23.216 68.2435 23.0399 68.2919 22.8672C68.4051 22.513 68.5878 22.1836 68.8299 21.8977C69.2245 21.4334 69.6514 20.9963 70.1077 20.5895C71.4562 19.3491 72.986 18.3115 74.6469 17.5107C75.6992 16.954 76.8559 16.6112 78.0475 16.5031C78.1603 16.5058 78.2714 16.5304 78.3744 16.5754C78.4773 16.6203 78.5702 16.6848 78.6474 16.7651C78.8321 16.9394 78.9811 17.1465 79.0863 17.3753C79.1727 17.5341 79.2273 17.7076 79.2473 17.8864C79.2525 17.9654 79.2352 18.0444 79.1972 18.1144C79.1593 18.1845 79.1023 18.2429 79.0325 18.2832C78.7926 18.4099 78.5406 18.5134 78.2801 18.5922C78.3506 18.7534 78.4429 18.9589 78.5557 19.208C78.6686 19.4571 78.7551 19.6631 78.8159 19.8181C78.8736 19.949 78.9055 20.0894 78.9099 20.2318C78.7778 20.7324 78.522 21.1937 78.165 21.5753C77.6665 22.2324 77.3177 22.7159 77.1187 23.0256C76.9096 23.3713 76.8055 23.7679 76.8185 24.1693C76.8185 24.9104 77.1678 25.281 77.8665 25.281C78.5452 25.281 79.59 24.6912 81.0007 23.5115C81.0202 23.3153 81.0523 23.1205 81.0969 22.9282C81.1615 22.6254 81.2596 22.3303 81.3897 22.0483C81.5043 21.818 81.7144 21.4573 82.02 20.9662C83.4761 18.7518 84.8095 17.6443 86.02 17.644C86.6468 17.644 86.9599 17.8798 86.9591 18.3515C86.8767 18.8912 86.669 19.4054 86.3517 19.8545C86.0595 20.3855 85.6946 20.8752 85.2671 21.3099C84.6539 21.8666 84.0706 22.4538 83.5195 23.0693C83.2521 23.3864 83.1077 23.7853 83.1115 24.1961C83.1086 24.3672 83.1443 24.5368 83.2162 24.6928C83.2881 24.8488 83.3944 24.9873 83.5275 25.0985C83.8273 25.3466 84.2116 25.4755 84.6041 25.4595C85.1736 25.4321 85.7243 25.252 86.1959 24.939C86.8984 24.5002 87.5685 24.0139 88.2013 23.4835C88.2262 23.2738 88.2776 23.0679 88.3543 22.8706C88.5684 22.4085 88.8236 21.9657 89.117 21.5473C89.6451 20.7102 90.258 19.927 90.9465 19.2097C91.3193 18.7814 91.8503 18.5145 92.4236 18.4668C92.6982 18.4544 92.9715 18.511 93.2172 18.6314C93.3116 18.68 93.3898 18.754 93.4426 18.8445C93.4955 18.935 93.5209 19.0384 93.5157 19.1425C93.5136 19.2539 93.4818 19.3629 93.4235 19.4588C93.3647 19.5653 93.2956 19.6662 93.2172 19.7599C93.1404 19.8495 92.9777 20.0236 92.7319 20.2861C91.1115 22.0401 90.3011 23.1783 90.3007 23.7007C90.3007 23.9907 90.3987 24.1368 90.5941 24.1368C90.7167 24.1368 90.9549 23.944 91.3086 23.5585C91.6623 23.1731 92.119 22.6665 92.6786 22.0388C93.3025 21.35 93.9653 20.6959 94.664 20.0795C95.4803 19.3589 96.3521 18.7005 97.2716 18.1103C97.6584 17.8006 98.129 17.6074 98.6262 17.5544C98.7908 17.5544 98.9524 17.7746 99.1109 18.2149C99.2676 18.6446 99.348 19.0972 99.3487 19.5534C99.3487 19.7743 99.1283 20.1101 98.6875 20.561C96.883 22.5261 95.9799 23.8944 95.9784 24.6658C95.9784 25.0964 96.1583 25.3118 96.5182 25.3118C96.9409 25.2662 97.3426 25.1076 97.679 24.8533C98.1328 24.563 98.8302 24.0568 99.771 23.3346C102.415 20.6138 104.233 18.7072 105.226 17.6149C105.452 16.3834 105.997 15.7676 106.859 15.7676C107.101 15.774 107.338 15.8362 107.55 15.949L107.642 16.2333C107.596 16.3997 107.575 16.572 107.581 16.7444C107.615 17.1048 107.69 17.4603 107.805 17.8041C107.953 18.3205 108.068 18.7542 108.149 19.105C108.236 19.4953 108.278 19.894 108.273 20.2934C108.273 20.9543 108.115 21.606 107.812 22.1966C107.469 22.8472 107.017 23.4364 106.473 23.9392C105.777 24.5791 105.019 25.151 104.21 25.6465C104.499 25.6985 104.793 25.7284 105.087 25.7361C105.558 25.7249 106.022 25.6197 106.45 25.4271C106.973 25.2011 107.472 24.9245 107.939 24.6014C108.447 24.2551 109.039 23.8073 109.716 23.258V24.2655C108.641 25.3273 107.46 26.2816 106.191 27.1142C105.408 27.6736 104.481 28.0093 103.514 28.0838C103.008 28.0712 102.509 27.958 102.048 27.7511C101.588 27.5442 101.175 27.2479 100.836 26.8803C100.42 26.5028 100.11 26.027 99.9372 25.4987C99.8475 25.1365 99.7944 24.7666 99.7784 24.3943C98.3872 25.731 97.3142 26.7 96.5594 27.3012C96.0419 27.8034 95.3731 28.1301 94.6514 28.2332C93.811 28.2332 93.3908 27.6921 93.3908 26.6099C93.391 26.2881 93.4434 25.9685 93.5461 25.6627C93.6582 25.3285 93.7991 25.0042 93.9672 24.6932C94.1475 24.3573 94.4222 23.8763 94.7912 23.2501C95.1602 22.6239 95.5859 21.9149 96.0684 21.123C95.2525 21.5921 94.511 22.1748 93.867 22.8527C93.3475 23.336 92.8593 23.8505 92.4053 24.3932C92.0065 24.8783 91.5787 25.4194 91.1218 26.0165C90.8122 26.4356 90.4782 26.8368 90.1214 27.2184C90.0414 27.309 89.9435 27.383 89.8337 27.4361C89.7239 27.4892 89.6043 27.5202 89.4819 27.5274C89.1542 27.5274 88.8517 27.1915 88.5738 26.5198C88.3459 25.9452 88.2119 25.3392 88.1767 24.724C87.446 25.651 86.6033 26.4883 85.667 27.2178C85.0533 27.7528 84.2835 28.0865 83.4656 28.1722C83.0543 28.1725 82.6529 28.0483 82.3168 27.8166C81.9807 27.585 81.7263 27.2573 81.5885 26.8786C81.2353 26.1308 81.0311 25.3242 80.9869 24.5018C78.5204 27.1383 76.7461 28.4571 75.6639 28.4583C75.4982 28.4729 75.3316 28.4446 75.1807 28.3761C75.0299 28.3076 74.9003 28.2013 74.805 28.0681L74.8067 28.0709ZM71.7757 21.9744C70.6415 22.8073 70.075 23.6645 70.0762 24.546C70.0653 24.8183 70.1234 25.089 70.2452 25.3342C70.2836 25.4236 70.3476 25.5004 70.4295 25.5552C70.5114 25.61 70.6078 25.6406 70.707 25.6432C70.9189 25.6105 71.1225 25.5386 71.307 25.4316C72.4183 24.7821 73.4155 23.9624 74.2607 23.0038C75.1538 22.0082 76.226 20.6529 77.4774 18.9382C75.4797 19.7659 73.5693 20.7819 71.7734 21.9716L71.7757 21.9744ZM101.143 23.2529C101.604 23.3148 102.039 23.4966 102.404 23.7791C102.762 24.1744 103.081 24.6026 103.356 25.0576C103.989 24.8238 104.546 24.426 104.966 23.9067C105.37 23.3202 105.567 22.6209 105.527 21.9151C105.527 21.816 105.527 21.7242 105.519 21.6452C105.511 21.5663 105.505 21.484 105.496 21.404L105.218 19.2085C104.582 19.9083 103.223 21.2554 101.141 23.2501L101.143 23.2529ZM32.6318 27.5486C32.4117 27.2579 32.3001 26.9023 32.3155 26.541C32.3258 26.2056 32.3858 25.8733 32.4937 25.5547C32.6125 25.1729 32.8245 24.5977 33.1297 23.8289C33.0243 23.9185 32.9229 24.0069 32.8272 24.0926C32.7315 24.1782 32.6433 24.2555 32.5625 24.3266C32.4817 24.3977 32.3963 24.4727 32.304 24.5505L32.2467 24.5997V24.747C31.6508 25.5349 30.9535 26.2445 30.172 26.8584C29.7146 27.258 29.1405 27.5074 28.5304 27.5716C28.224 27.5713 27.9251 27.4786 27.6748 27.306C27.4244 27.1335 27.2347 26.8896 27.1317 26.6076C26.8593 26.0299 26.7061 25.4055 26.6808 24.7699C24.6708 26.8832 23.181 27.9401 22.2115 27.9405C22.051 27.9448 21.8917 27.9114 21.7471 27.8433C21.6024 27.7751 21.4766 27.6741 21.3801 27.5486C21.1603 27.2577 21.0488 26.9023 21.0639 26.541C21.0741 26.2055 21.1343 25.8733 21.2426 25.5547C21.3614 25.1729 21.5734 24.5977 21.8786 23.8289C21.7713 23.9189 21.6697 24.0067 21.5738 24.0926C21.4781 24.1788 21.3899 24.2555 21.3114 24.3266C21.2329 24.3977 21.1446 24.4727 21.053 24.5505C20.9613 24.6283 20.869 24.7094 20.7774 24.7917V24.7458C20.0956 25.5655 19.3181 26.3046 18.4608 26.948C17.8025 27.4562 16.9928 27.7413 16.154 27.7602C15.8403 27.7706 15.5289 27.7055 15.2471 27.5707C14.9652 27.4359 14.7216 27.2355 14.5376 26.9872C14.108 26.3638 13.8987 25.6204 13.9417 24.8701C13.932 24.1223 14.1256 23.3854 14.5026 22.7346C14.9941 21.9655 15.6138 21.2823 16.3362 20.7132C16.8556 20.2667 17.4389 19.8965 18.0677 19.6144C18.5492 19.3889 19.0731 19.2628 19.6068 19.2438C19.9112 19.2279 20.2122 19.3129 20.4611 19.4851C20.5681 19.5728 20.6524 19.684 20.707 19.8096C20.7617 19.9352 20.7852 20.0716 20.7756 20.2077C20.7595 20.722 20.5704 21.2168 20.2376 21.6156C19.7759 22.1687 19.2188 22.6387 18.5914 23.0044C17.726 23.526 16.8141 23.9702 15.8669 24.3316V24.6115C15.8441 24.9833 15.9622 25.3504 16.1987 25.6426C16.3067 25.7636 16.441 25.8594 16.5917 25.9233C16.7425 25.9871 16.906 26.0172 17.0702 26.0115C17.4723 26.0062 17.8689 25.9189 18.2345 25.7551C18.6583 25.5702 19.0606 25.3412 19.4343 25.0722C19.8041 24.8068 20.2512 24.4574 20.7756 24.0237V24.0181C21.8957 22.9914 22.8752 21.8275 23.6898 20.5554C23.5752 20.5479 23.4679 20.5423 23.3678 20.5386C23.2681 20.5346 23.1512 20.533 23.0137 20.533C22.6745 20.5218 22.3352 20.5518 22.0035 20.6225C21.9119 20.6449 21.8257 20.6692 21.7451 20.6953C21.6916 20.7156 21.6355 20.7287 21.5784 20.7345C21.548 20.7345 21.5348 20.7121 21.5348 20.6673C21.5945 20.2651 21.7556 19.8836 22.0035 19.5573C22.1957 19.2153 22.4371 18.902 22.7203 18.6269C22.9534 18.4211 23.2384 18.2796 23.546 18.2172C23.9984 18.137 24.458 18.1019 24.9177 18.1125H25.4099C25.6979 17.5578 26.0693 17.0484 26.5118 16.6011C26.814 16.3171 27.2172 16.1588 27.6365 16.1594C28.056 16.1594 28.2668 16.2529 28.2668 16.4393C28.1523 16.7112 27.9843 16.9584 27.7723 17.167C27.5029 17.484 27.2541 17.8171 27.0275 18.1646C27.2882 18.1925 27.5196 18.2205 27.7213 18.2412C27.923 18.262 28.0835 18.2827 28.1981 18.2972C27.7207 19.151 27.1723 19.9648 26.5582 20.7306C26.3439 20.7156 26.164 20.7026 26.0184 20.6914L25.5772 20.6578L25.0312 20.6186C24.6194 21.268 24.2739 21.8488 23.9947 22.3612C23.7425 22.8124 23.5273 23.2824 23.3512 23.7668C23.2089 24.1556 23.1336 24.5647 23.1283 24.9776C23.1283 25.4926 23.3374 25.7506 23.7586 25.7506C24.1747 25.7039 24.5697 25.5465 24.9005 25.2955C25.3543 25.0041 25.9571 24.5596 26.7089 23.9621C26.723 23.8595 26.7421 23.7588 26.7662 23.6599C26.8128 23.4343 26.8855 23.2145 26.9828 23.0049C27.0672 22.8329 27.2242 22.564 27.4538 22.1983C28.5382 20.5473 29.5314 19.7219 30.4333 19.7219C30.9012 19.7219 31.1352 19.8972 31.1352 20.248C31.0734 20.6503 30.918 21.0333 30.6808 21.3676C30.4631 21.7643 30.1911 22.1302 29.8723 22.4552C29.4156 22.87 28.9809 23.3074 28.5699 23.7657C28.3719 24.0025 28.2649 24.2995 28.2674 24.6053C28.2649 24.7326 28.2912 24.8588 28.3445 24.9749C28.3978 25.0911 28.4767 25.1942 28.5757 25.2771C28.7989 25.4622 29.0852 25.5585 29.3778 25.5469C29.8021 25.5264 30.2124 25.3924 30.5639 25.1595C31.0764 24.8396 31.5656 24.4854 32.0279 24.0993V24.0125C33.1478 22.9862 34.1266 21.8222 34.9398 20.5498C34.7146 20.5341 34.4888 20.5266 34.2631 20.5274C33.924 20.5161 33.5849 20.5462 33.2535 20.6169C33.1618 20.6393 33.0747 20.664 32.9951 20.6897C32.9421 20.7101 32.8866 20.7232 32.83 20.7289C32.7991 20.7289 32.7842 20.7065 32.7842 20.6617C32.8439 20.2594 33.0052 19.8779 33.2535 19.5517C33.4463 19.2101 33.6876 18.8968 33.9703 18.6213C34.204 18.4154 34.4895 18.274 34.7977 18.2116C35.2495 18.1313 35.7085 18.0962 36.1677 18.1069H36.6599C36.9479 17.5522 37.3193 17.0428 37.7617 16.5955C38.064 16.3117 38.4672 16.1534 38.8865 16.1538C39.3053 16.1538 39.5168 16.2473 39.5168 16.4337C39.4028 16.7053 39.2356 16.9525 39.0246 17.1614C38.7537 17.4773 38.5048 17.8105 38.2797 18.159L38.9736 18.2356C39.1764 18.258 39.3334 18.2771 39.4486 18.2916C38.9717 19.1456 38.4232 19.9595 37.8087 20.725C37.594 20.71 37.4147 20.697 37.2707 20.6858L36.8283 20.6522L36.284 20.613C35.8703 21.2624 35.5242 21.8432 35.2457 22.3556C34.9941 22.8069 34.7793 23.2769 34.6034 23.7612C34.4608 24.1499 34.3851 24.5591 34.3794 24.972C34.3794 25.4866 34.5895 25.7443 35.0097 25.745C35.4258 25.6985 35.8209 25.5411 36.1516 25.2899C36.6176 24.9914 37.2416 24.5307 38.0236 23.9079C39.9679 21.9042 41.3073 20.4994 42.0419 19.6933C42.2103 18.7742 42.6149 18.314 43.2583 18.314C43.4387 18.3188 43.6153 18.365 43.774 18.4489L43.8428 18.6622C43.8077 18.7859 43.7922 18.914 43.7969 19.0423C43.8217 19.3114 43.8777 19.577 43.9637 19.8338C44.0748 20.2173 44.1613 20.5414 44.2221 20.8017C44.2867 21.0925 44.3176 21.3896 44.3143 21.6872C44.3149 22.18 44.1972 22.666 43.9705 23.1063C43.7158 23.5916 43.3783 24.031 42.9724 24.4055C42.4548 24.883 41.8901 25.3094 41.2867 25.6784C41.5025 25.7174 41.7211 25.7398 41.9405 25.7456C42.2913 25.7375 42.6366 25.6592 42.9552 25.5155C43.3462 25.3466 43.7191 25.1404 44.0685 24.8998C44.4455 24.6415 44.8873 24.3072 45.3938 23.8967V24.6473C44.592 25.4399 43.7114 26.1524 42.765 26.7745C42.1816 27.191 41.4913 27.4412 40.771 27.4971C40.3935 27.4879 40.0218 27.4038 39.6786 27.2498C39.3354 27.0958 39.0279 26.8752 38.7747 26.6015C38.4639 26.3201 38.233 25.9648 38.1043 25.5704C38.0352 25.2888 37.9949 25.0011 37.984 24.7117C35.9476 26.8597 34.4409 27.9341 33.4638 27.9349C33.303 27.9398 33.1434 27.9071 32.9983 27.8394C32.8531 27.7717 32.7267 27.671 32.6295 27.5458L32.6318 27.5486ZM39.0039 23.9062C39.3475 23.9533 39.6721 24.0885 39.9448 24.298C40.2119 24.5926 40.45 24.9113 40.6558 25.2496C41.1277 25.0763 41.5419 24.7799 41.8534 24.3926C42.1556 23.9559 42.3028 23.4344 42.2722 22.9081C42.2722 22.8331 42.2722 22.7659 42.2665 22.706C42.2608 22.6461 42.2567 22.5862 42.2493 22.5263L42.043 20.8907C41.5682 21.412 40.5544 22.4162 39.0016 23.9034L39.0039 23.9062ZM18.2694 20.7356C17.9319 20.9257 17.6165 21.1509 17.3286 21.4073C17.0011 21.6942 16.7138 22.0221 16.4743 22.3825C16.224 22.7508 16.0562 23.1666 15.9821 23.6028C16.6195 23.37 17.2156 23.041 17.7486 22.6276C18.1667 22.3132 18.5326 21.9374 18.8332 21.5137C19.0122 21.2855 19.1317 21.0183 19.1816 20.735C19.1816 20.563 19.101 20.477 18.9398 20.477C18.6992 20.5126 18.4697 20.5997 18.2677 20.7322L18.2694 20.7356ZM30.922 18.7064C30.8398 18.642 30.7738 18.5601 30.729 18.467C30.6842 18.3739 30.6619 18.2719 30.6636 18.169C30.6962 17.7611 30.8653 17.3749 31.1449 17.0702C31.2519 16.9006 31.3978 16.7576 31.571 16.6524C31.7442 16.5472 31.94 16.4827 32.143 16.464C32.3544 16.4579 32.5598 16.5324 32.716 16.6716C32.7957 16.7501 32.8574 16.8443 32.8969 16.9478C32.9364 17.0514 32.9529 17.162 32.9452 17.2723C32.914 17.6683 32.748 18.0427 32.4736 18.3358C32.3635 18.5032 32.2149 18.6432 32.0396 18.7445C31.8643 18.8459 31.6672 18.9059 31.4641 18.9197C31.2622 18.9153 31.069 18.8393 30.9203 18.7059L30.922 18.7064ZM86.6732 16.277C86.5632 16.1907 86.475 16.0808 86.4154 15.9559C86.3558 15.831 86.3263 15.6944 86.3294 15.5566C86.3725 15.0093 86.5995 14.4913 86.9752 14.0832C87.1189 13.8559 87.3146 13.6643 87.547 13.5234C87.7793 13.3824 88.0419 13.296 88.3142 13.271C88.5979 13.2629 88.8736 13.3633 89.0826 13.5509C89.1893 13.6556 89.2721 13.7814 89.3252 13.9198C89.3784 14.0582 89.4007 14.2061 89.3908 14.3536C89.3493 14.8849 89.1275 15.3874 88.7606 15.7816C88.6128 16.0062 88.4134 16.194 88.1782 16.33C87.9431 16.4661 87.6787 16.5466 87.406 16.5653C87.1322 16.5599 86.87 16.4561 86.6698 16.2736L86.6732 16.277ZM24.4805 10.5331C24.1832 10.4772 23.7145 10.3652 23.0687 10.2034C22.423 10.0417 21.8213 9.90564 21.2598 9.79704C20.7542 9.69428 20.2395 9.63973 19.7231 9.63415C19.4943 9.62951 19.2661 9.65992 19.047 9.72427C18.856 9.78211 18.5933 9.87951 18.2591 10.0165C18.0372 10.1214 17.7991 10.1897 17.5543 10.2185C17.3572 10.2185 17.2592 10.1402 17.2592 9.98289C17.2649 9.87525 17.2986 9.7708 17.3572 9.67949C17.5234 9.41826 17.685 9.16991 17.842 8.93443C17.9745 8.72337 18.1429 8.53595 18.3399 8.38025C18.5687 8.22546 18.8287 8.12012 19.1025 8.07125C19.5352 7.98674 19.9758 7.94715 20.417 7.95314C21.2367 6.72164 22.0024 5.63045 22.714 4.67958C23.4257 3.7287 24.0714 2.92636 24.6513 2.27254C25.1142 1.73282 25.6258 1.23485 26.18 0.78466C26.4673 0.51668 26.8316 0.340893 27.224 0.280863C27.3009 0.276167 27.3779 0.286851 27.4504 0.312262C27.523 0.337672 27.5894 0.377274 27.6457 0.428643C27.6982 0.484068 27.7386 0.549288 27.7646 0.620379C27.7906 0.691469 27.8016 0.766963 27.797 0.842317C27.797 1.43195 27.2656 2.65412 26.2029 4.50884L26.439 4.73891C26.1217 5.14669 25.7577 5.51779 25.3543 5.84503C25.1633 6.01986 24.9266 6.13977 24.6702 6.19153C24.5493 6.19153 24.4886 6.08685 24.4886 5.87526C24.4886 5.34757 24.8436 4.5359 25.5537 3.44023C25.9094 2.94331 26.2105 2.41121 26.4522 1.85271C26.4522 1.75904 26.4119 1.71221 26.3313 1.71221C26.1915 1.71221 25.8364 2.02232 25.2661 2.64255C24.6958 3.26278 23.9933 4.13809 23.1587 5.26846C22.2117 6.52833 21.5623 7.42863 21.2105 7.96937C21.7662 8.01694 22.318 8.10015 22.8624 8.21847C23.2918 8.31774 23.9165 8.4812 24.7367 8.70884C25.328 8.88711 25.9326 9.02036 26.545 9.1074C26.0717 9.63321 25.7453 9.99072 25.5658 10.1799C25.4512 10.3183 25.3115 10.435 25.1538 10.5242C25.0577 10.5609 24.955 10.5782 24.8518 10.5751C24.727 10.5725 24.6027 10.5585 24.4805 10.5331ZM27.7299 9.79032C27.4461 9.38012 27.308 8.89023 27.3369 8.39592C27.3305 7.90362 27.4583 7.41852 27.707 6.99033C28.0309 6.48313 28.4395 6.0326 28.916 5.6575C29.2584 5.36444 29.6423 5.12106 30.0557 4.93483C30.3722 4.78638 30.7167 4.70348 31.0676 4.69133C31.2683 4.68019 31.467 4.73627 31.6308 4.85031C31.7021 4.9073 31.7583 4.98026 31.7946 5.06299C31.8309 5.14573 31.8463 5.23579 31.8394 5.32556C31.8287 5.66437 31.7034 5.99017 31.483 6.25198C31.1798 6.61657 30.8134 6.92634 30.4006 7.16722C29.8299 7.51037 29.2289 7.80299 28.6049 8.04159V8.22519C28.5893 8.47036 28.6673 8.71246 28.8238 8.90476C28.8949 8.98425 28.9831 9.04732 29.0822 9.08943C29.1813 9.13154 29.2887 9.15163 29.3967 9.14826C29.6612 9.14459 29.9221 9.08741 30.1628 8.98033C30.442 8.85844 30.7068 8.70715 30.9524 8.52915C31.2133 8.34256 31.5305 8.09402 31.9041 7.78353C33.191 6.45761 34.0776 5.52819 34.5639 4.99529C34.675 4.38905 34.9415 4.08733 35.3661 4.08733C35.4847 4.09001 35.6009 4.12013 35.7053 4.17522L35.7511 4.31572C35.7271 4.39714 35.7166 4.48183 35.7202 4.5665C35.7365 4.74346 35.773 4.91808 35.829 5.08709C35.9018 5.33955 35.9597 5.55338 36.0009 5.72524C36.0435 5.91645 36.0641 6.11172 36.0622 6.3074C36.0618 6.63207 35.9833 6.9521 35.833 7.24167C35.6658 7.56133 35.4437 7.85063 35.1764 8.097C34.8354 8.41164 34.4637 8.69287 34.0665 8.93667C34.2089 8.96282 34.3532 8.9778 34.498 8.98145C34.7284 8.97601 34.9552 8.92438 35.1644 8.82975C35.4224 8.71877 35.6683 8.58261 35.8984 8.42335C36.1476 8.25542 36.4381 8.03151 36.7699 7.76282V8.2571C36.2433 8.77964 35.6637 9.24853 35.04 9.65654C34.6559 9.93201 34.2007 10.0974 33.7256 10.134C33.4769 10.1277 33.2321 10.072 33.0061 9.97024C32.7802 9.86852 32.5777 9.72293 32.4112 9.54234C32.2074 9.35707 32.0555 9.12388 31.97 8.86501C31.9209 8.66593 31.8932 8.46237 31.8875 8.25766C31.4262 8.82178 30.8968 9.32927 30.3106 9.76905C29.8778 10.1036 29.3452 10.2915 28.7934 10.3042C28.5867 10.3106 28.3816 10.2672 28.1962 10.1779C28.0107 10.0886 27.8506 9.95604 27.7299 9.792V9.79032ZM32.5642 7.76114C32.7905 7.79106 33.0043 7.88023 33.183 8.01919C33.3596 8.21302 33.5168 8.42297 33.6523 8.64614C33.963 8.53202 34.2359 8.33733 34.4418 8.08301C34.6405 7.79473 34.7373 7.45093 34.7174 7.10396C34.7174 7.05526 34.7174 7.01048 34.7134 6.9713L34.702 6.85318L34.5656 5.77506C34.2535 6.12062 33.5864 6.78321 32.5642 7.76282V7.76114ZM30.1886 5.67206C29.9675 5.79896 29.7601 5.9475 29.5698 6.1154C29.3543 6.30452 29.1652 6.52037 29.0071 6.75746C28.8421 7.00054 28.7312 7.27479 28.6817 7.56242C29.1016 7.4085 29.4945 7.1919 29.8465 6.92036C30.1215 6.71275 30.3618 6.4646 30.5587 6.18481C30.6786 6.03542 30.7583 5.85918 30.7908 5.67206C30.7908 5.5601 30.7369 5.50412 30.6315 5.50412C30.4726 5.52816 30.3212 5.58628 30.188 5.6743L30.1886 5.67206Z" fill="#F7F7F0"/>
</g>
<defs>
<clipPath id="clip0_52_85">
<rect width="110" height="44" fill="white"/>
</clipPath>
</defs>
</svg>
