<svg width="76" height="12" viewBox="0 0 76 12" fill="none" xmlns="http://www.w3.org/2000/svg">
<path d="M6.03428 0L7.88572 3.90361L12 4.55422L8.98285 7.66265L9.73714 12L6.03428 9.9759L2.33143 12L3.01714 7.66265L0 4.55422L4.18285 3.90361L6.03428 0Z" fill="#FFB900"/>
<path d="M22.0343 0L23.8857 3.90361L28 4.55422L25.0514 7.66265L25.7371 12L22.0343 9.9759L18.3314 12L19.0171 7.66265L16 4.55422L20.1829 3.90361L22.0343 0Z" fill="#FFB900"/>
<path d="M37.9657 0L39.8171 3.90361L44 4.55422L40.9829 7.66265L41.6686 12L37.9657 9.9759L34.2628 12L34.9486 7.66265L32 4.55422L36.1143 3.90361L37.9657 0Z" fill="#FFB900"/>
<path d="M53.9657 0L55.8171 3.90361L60 4.55422L56.9829 7.66265L57.6686 12L53.9657 9.9759L50.2629 12L50.9486 7.66265L48 4.55422L52.1143 3.90361L53.9657 0Z" fill="#FFB900"/>
<path d="M69.9657 0L71.8171 3.90361L76 4.55422L72.9829 7.66265L73.6686 12L69.9657 9.9759L66.2629 12L67.0171 7.66265L64 4.55422L68.1143 3.90361L69.9657 0Z" fill="#FFB900"/>
</svg>
